<svg width="512" height="512" viewBox="0 0 512 512" fill="none" xmlns="http://www.w3.org/2000/svg">
<g clip-path="url(#clip0_72008_15318)">
<g clip-path="url(#clip1_72008_15318)">
<path d="M154 247C176.091 247 194 229.091 194 207C194 184.909 176.091 167 154 167C131.909 167 114 184.909 114 207C114 229.091 131.909 247 154 247Z" fill="url(#paint0_linear_72008_15318)" stroke="#F8AF18" stroke-width="4" stroke-miterlimit="10"/>
<path d="M154 140.38V115M154 299V273.62M201.11 159.89L219.05 142M89 272.05L106.94 254.11M106.94 159.89L89 142M219.1 272.1L201.16 254.16M62 207H87.38M246 207H220.62" stroke="#FBBF24" stroke-width="12" stroke-miterlimit="10" stroke-linecap="round"/>
</g>
<g clip-path="url(#clip2_72008_15318)">
<g clip-path="url(#clip3_72008_15318)">
<path d="M267.34 265.18C267.34 273.783 270.758 282.035 276.841 288.118C279.854 291.131 283.43 293.52 287.366 295.15C291.301 296.781 295.52 297.62 299.78 297.62H429.53V297.5C430.3 297.5 431.06 297.62 431.84 297.62C440.493 297.622 448.836 294.395 455.236 288.571C461.636 282.747 465.633 274.744 466.444 266.129C467.256 257.514 464.824 248.906 459.624 241.989C454.425 235.072 446.831 230.344 438.33 228.73C439.335 222.644 438.58 216.397 436.155 210.726C433.73 205.054 429.736 200.193 424.641 196.714C419.547 193.236 413.566 191.285 407.4 191.091C401.235 190.897 395.143 192.468 389.84 195.62C383.796 185.674 374.383 178.229 363.313 174.638C352.244 171.048 340.253 171.55 329.522 176.054C318.791 180.558 310.034 188.765 304.844 199.181C299.653 209.597 298.374 221.53 301.24 232.81C300.75 232.81 300.24 232.74 299.78 232.74C295.52 232.74 291.301 233.579 287.366 235.209C283.43 236.839 279.854 239.229 276.841 242.241C270.758 248.325 267.34 256.576 267.34 265.18Z" fill="url(#paint1_linear_72008_15318)" stroke="#848B98" stroke-miterlimit="10"/>
</g>
<g clip-path="url(#clip4_72008_15318)">
<path d="M359.841 252C358.991 252 358.161 252.09 357.311 252.13C362.135 232.702 359.854 212.19 350.88 194.297C341.906 176.403 326.83 162.308 308.374 154.556C289.919 146.804 269.3 145.906 250.24 152.025C231.18 158.143 214.936 170.874 204.441 187.92C195.948 182.843 186.261 180.11 176.367 180.001C166.473 179.892 156.728 182.41 148.125 187.299C139.523 192.188 132.372 199.272 127.403 207.828C122.434 216.384 119.824 226.106 119.841 236C119.863 239.043 120.13 242.08 120.641 245.08C105.993 247.897 92.9197 256.069 83.9706 268.003C75.0216 279.936 70.8385 294.776 72.2371 309.626C73.6358 324.477 80.5159 338.274 91.5356 348.327C102.555 358.379 116.924 363.967 131.841 364C133.191 364 134.511 363.89 135.841 363.8V364H359.841C374.693 364 388.937 358.1 399.439 347.598C409.941 337.096 415.841 322.852 415.841 308C415.841 293.148 409.941 278.904 399.439 268.402C388.937 257.9 374.693 252 359.841 252Z" fill="url(#paint2_linear_72008_15318)" stroke="#5B6472" stroke-width="6" stroke-miterlimit="10"/>
</g>
</g>
</g>
<path d="M200 376C197.878 376 195.843 375.157 194.343 373.657C192.843 372.157 192 370.122 192 368V356C192 353.878 192.843 351.843 194.343 350.343C195.843 348.843 197.878 348 200 348C202.122 348 204.157 348.843 205.657 350.343C207.157 351.843 208 353.878 208 356V368C208 370.122 207.157 372.157 205.657 373.657C204.157 375.157 202.122 376 200 376Z" fill="url(#paint3_linear_72008_15318)" stroke="#0A5AD4" stroke-miterlimit="10"/>
<path d="M256 376C253.878 376 251.843 375.157 250.343 373.657C248.843 372.157 248 370.122 248 368V356C248 353.878 248.843 351.843 250.343 350.343C251.843 348.843 253.878 348 256 348C258.122 348 260.157 348.843 261.657 350.343C263.157 351.843 264 353.878 264 356V368C264 370.122 263.157 372.157 261.657 373.657C260.157 375.157 258.122 376 256 376Z" fill="url(#paint4_linear_72008_15318)" stroke="#0A5AD4" stroke-miterlimit="10"/>
<path d="M312 376C309.878 376 307.843 375.157 306.343 373.657C304.843 372.157 304 370.122 304 368V356C304 353.878 304.843 351.843 306.343 350.343C307.843 348.843 309.878 348 312 348C314.122 348 316.157 348.843 317.657 350.343C319.157 351.843 320 353.878 320 356V368C320 370.122 319.157 372.157 317.657 373.657C316.157 375.157 314.122 376 312 376Z" fill="url(#paint5_linear_72008_15318)" stroke="#0A5AD4" stroke-miterlimit="10"/>
<defs>
<linearGradient id="paint0_linear_72008_15318" x1="134" y1="172.35" x2="174" y2="241.65" gradientUnits="userSpaceOnUse">
<stop stop-color="#FBBF24"/>
<stop offset="0.45" stop-color="#FBBF24"/>
<stop offset="1" stop-color="#F59E0B"/>
</linearGradient>
<linearGradient id="paint1_linear_72008_15318" x1="319.58" y1="181.62" x2="400.2" y2="321.27" gradientUnits="userSpaceOnUse">
<stop stop-color="#9CA3AF"/>
<stop offset="0.45" stop-color="#9CA3AF"/>
<stop offset="1" stop-color="#6B7280"/>
</linearGradient>
<linearGradient id="paint2_linear_72008_15318" x1="168.291" y1="175.68" x2="301.481" y2="406.37" gradientUnits="userSpaceOnUse">
<stop stop-color="#6B7280"/>
<stop offset="0.45" stop-color="#6B7280"/>
<stop offset="1" stop-color="#4B5563"/>
</linearGradient>
<linearGradient id="paint3_linear_72008_15318" x1="193.397" y1="350.573" x2="206.595" y2="373.43" gradientUnits="userSpaceOnUse">
<stop stop-color="#0B65ED"/>
<stop offset="0.45" stop-color="#0A5AD4"/>
<stop offset="1" stop-color="#0950BC"/>
</linearGradient>
<linearGradient id="paint4_linear_72008_15318" x1="249.396" y1="350.573" x2="262.594" y2="373.43" gradientUnits="userSpaceOnUse">
<stop stop-color="#0B65ED"/>
<stop offset="0.45" stop-color="#0A5AD4"/>
<stop offset="1" stop-color="#0950BC"/>
</linearGradient>
<linearGradient id="paint5_linear_72008_15318" x1="305.395" y1="350.573" x2="318.593" y2="373.43" gradientUnits="userSpaceOnUse">
<stop stop-color="#0B65ED"/>
<stop offset="0.45" stop-color="#0A5AD4"/>
<stop offset="1" stop-color="#0950BC"/>
</linearGradient>
<clipPath id="clip0_72008_15318">
<rect width="410.84" height="258" fill="white" transform="translate(56 109)"/>
</clipPath>
<clipPath id="clip1_72008_15318">
<rect width="196" height="196" fill="white" transform="translate(56 109)"/>
</clipPath>
<clipPath id="clip2_72008_15318">
<rect width="398" height="222" fill="white" transform="translate(68.8398 145)"/>
</clipPath>
<clipPath id="clip3_72008_15318">
<rect width="200.26" height="126.12" fill="white" transform="translate(266.84 172)"/>
</clipPath>
<clipPath id="clip4_72008_15318">
<rect width="350" height="222" fill="white" transform="translate(68.8398 145)"/>
</clipPath>
</defs>
</svg>
