<svg width="512" height="512" viewBox="0 0 512 512" fill="none" xmlns="http://www.w3.org/2000/svg">
<g clip-path="url(#clip0_72008_15101)">
<g clip-path="url(#clip1_72008_15101)">
<path d="M267.34 265.18C267.34 273.784 270.758 282.035 276.841 288.119C279.854 291.131 283.43 293.521 287.366 295.151C291.301 296.781 295.52 297.62 299.78 297.62H429.53V297.5C430.3 297.5 431.06 297.62 431.84 297.62C440.493 297.622 448.836 294.395 455.236 288.571C461.636 282.747 465.633 274.745 466.444 266.13C467.256 257.514 464.824 248.906 459.624 241.99C454.425 235.073 446.831 230.345 438.33 228.73C439.335 222.644 438.58 216.398 436.155 210.726C433.73 205.054 429.736 200.193 424.641 196.715C419.547 193.237 413.566 191.286 407.4 191.092C401.235 190.898 395.143 192.469 389.84 195.62C383.796 185.675 374.383 178.23 363.313 174.639C352.244 171.048 340.253 171.55 329.522 176.055C318.791 180.559 310.034 188.766 304.844 199.182C299.653 209.598 298.374 221.531 301.24 232.81C300.75 232.81 300.24 232.74 299.78 232.74C295.52 232.74 291.301 233.579 287.366 235.21C283.43 236.84 279.854 239.229 276.841 242.242C270.758 248.325 267.34 256.577 267.34 265.18Z" fill="url(#paint0_linear_72008_15101)" stroke="#848B98" stroke-miterlimit="10"/>
</g>
<path d="M360 252C359.146 252 358.315 252.089 357.471 252.127C359.063 245.668 360 238.951 360 232C360 185.608 322.392 148 276 148C245.799 148 219.399 163.991 204.596 187.915C196.218 182.921 186.461 180 176 180C145.072 180 120 205.072 120 236C120 239.1 120.317 242.12 120.801 245.083C93.022 250.333 72 274.694 72 304C72 337.137 98.863 364 132 364C133.351 364 134.672 363.886 136 363.798V364H360C390.928 364 416 338.928 416 308C416 277.072 390.928 252 360 252Z" fill="url(#paint1_linear_72008_15101)"/>
<path d="M360 252C359.146 252 358.315 252.089 357.471 252.127C359.063 245.668 360 238.951 360 232C360 185.608 322.392 148 276 148C245.799 148 219.399 163.991 204.596 187.915C196.218 182.921 186.461 180 176 180C145.072 180 120 205.072 120 236C120 239.1 120.317 242.12 120.801 245.083C93.022 250.333 72 274.694 72 304C72 337.137 98.863 364 132 364C133.351 364 134.672 363.886 136 363.798V364H360C390.928 364 416 338.928 416 308C416 277.072 390.928 252 360 252Z" stroke="#D0D9E7" stroke-width="6" stroke-miterlimit="10"/>
</g>
<g clip-path="url(#clip2_72008_15101)">
<path d="M275.569 368.5L269.789 365.2C270.304 363.074 270.304 360.856 269.789 358.73L275.569 355.5C276.025 355.24 276.426 354.892 276.748 354.476C277.07 354.061 277.307 353.586 277.445 353.079C277.584 352.572 277.621 352.043 277.554 351.521C277.488 351 277.32 350.496 277.059 350.04C276.526 349.104 275.644 348.417 274.606 348.128C273.568 347.84 272.458 347.974 271.519 348.5L265.729 351.8C264.933 351.029 264.047 350.357 263.089 349.8C262.143 349.257 261.136 348.827 260.089 348.52V342C260.089 340.926 259.662 339.896 258.902 339.136C258.143 338.377 257.113 337.95 256.039 337.95C254.964 337.95 253.934 338.377 253.175 339.136C252.415 339.896 251.989 340.926 251.989 342V348.6C249.867 349.221 247.919 350.327 246.299 351.83L240.479 348.5C240.014 348.232 239.501 348.057 238.969 347.987C238.436 347.917 237.896 347.953 237.377 348.092C236.859 348.232 236.373 348.472 235.948 348.799C235.523 349.127 235.166 349.535 234.899 350C234.633 350.461 234.462 350.969 234.395 351.497C234.328 352.024 234.367 352.559 234.51 353.071C234.652 353.583 234.895 354.062 235.225 354.479C235.554 354.896 235.963 355.243 236.429 355.5L242.209 358.8C241.694 360.926 241.694 363.144 242.209 365.27L236.429 368.5C235.963 368.757 235.554 369.104 235.225 369.522C234.895 369.939 234.652 370.417 234.51 370.929C234.367 371.441 234.328 371.977 234.395 372.504C234.462 373.031 234.633 373.54 234.899 374C235.261 374.611 235.776 375.117 236.393 375.468C237.01 375.818 237.709 376.002 238.419 376C239.121 375.999 239.811 375.813 240.419 375.46L246.209 372.16C247.004 372.932 247.89 373.603 248.849 374.16C249.795 374.7 250.802 375.127 251.849 375.43V382C251.849 383.074 252.275 384.104 253.035 384.864C253.794 385.623 254.824 386.05 255.899 386.05C256.973 386.05 258.003 385.623 258.762 384.864C259.522 384.104 259.949 383.074 259.949 382V375.39C262.067 374.769 264.012 373.663 265.629 372.16L271.519 375.5C272.126 375.853 272.816 376.039 273.519 376.04C274.229 376.042 274.927 375.858 275.544 375.508C276.162 375.157 276.677 374.651 277.039 374.04C277.313 373.582 277.493 373.073 277.567 372.544C277.642 372.015 277.61 371.476 277.473 370.96C277.336 370.444 277.097 369.96 276.77 369.537C276.443 369.115 276.034 368.762 275.569 368.5ZM252.959 367.2C252.274 366.808 251.673 366.285 251.191 365.66C250.708 365.036 250.354 364.322 250.148 363.561C249.941 362.799 249.887 362.004 249.989 361.222C250.09 360.439 250.345 359.684 250.739 359C251.279 358.084 252.05 357.325 252.974 356.799C253.899 356.273 254.945 355.997 256.009 356C257.061 356.006 258.093 356.282 259.009 356.8C259.693 357.192 260.294 357.715 260.777 358.34C261.259 358.964 261.613 359.678 261.82 360.44C262.026 361.201 262.08 361.996 261.978 362.779C261.877 363.561 261.622 364.316 261.229 365C260.411 366.375 259.088 367.375 257.542 367.786C255.996 368.197 254.351 367.987 252.959 367.2Z" fill="url(#paint2_linear_72008_15101)" stroke="#86C3DB" stroke-miterlimit="10"/>
</g>
<defs>
<linearGradient id="paint0_linear_72008_15101" x1="319.58" y1="181.62" x2="400.2" y2="321.27" gradientUnits="userSpaceOnUse">
<stop stop-color="#9CA3AF"/>
<stop offset="0.45" stop-color="#9CA3AF"/>
<stop offset="1" stop-color="#6B7280"/>
</linearGradient>
<linearGradient id="paint1_linear_72008_15101" x1="168" y1="175" x2="301.186" y2="405.685" gradientUnits="userSpaceOnUse">
<stop stop-color="#E5EFFF"/>
<stop offset="0.45" stop-color="#EBF2FF"/>
<stop offset="0.5" stop-color="#EAF2FF"/>
<stop offset="0.99" stop-color="#D9E9FF"/>
</linearGradient>
<linearGradient id="paint2_linear_72008_15101" x1="245.279" y1="343.43" x2="266.719" y2="380.57" gradientUnits="userSpaceOnUse">
<stop stop-color="#86C3DB"/>
<stop offset="0.45" stop-color="#86C3DB"/>
<stop offset="1" stop-color="#5EAFCF"/>
</linearGradient>
<clipPath id="clip0_72008_15101">
<rect width="398" height="222" fill="white" transform="translate(68.8398 145)"/>
</clipPath>
<clipPath id="clip1_72008_15101">
<rect width="200.26" height="126.12" fill="white" transform="translate(266.84 172)"/>
</clipPath>
<clipPath id="clip2_72008_15101">
<rect width="156.2" height="49" fill="white" transform="translate(177.898 337.5)"/>
</clipPath>
</defs>
</svg>
