<svg width="512" height="512" viewBox="0 0 512 512" fill="none" xmlns="http://www.w3.org/2000/svg">
<g clip-path="url(#clip0_72008_15629)">
<g clip-path="url(#clip1_72008_15629)">
<path d="M228.62 228.4C181.45 228.4 143.21 190.67 143.21 144.14C143.231 137.003 144.168 129.898 146 123C103.27 127.61 70 163.33 70 206.73C70 253.27 108.24 291 155.41 291C174.215 291.073 192.515 284.919 207.455 273.499C222.395 262.079 233.135 246.035 238 227.87C234.885 228.214 231.754 228.39 228.62 228.4Z" fill="url(#paint0_linear_72008_15629)" stroke="#72B9D5" stroke-width="4" stroke-linecap="round" stroke-linejoin="round"/>
</g>
<g clip-path="url(#clip2_72008_15629)">
<g clip-path="url(#clip3_72008_15629)">
<path d="M267.34 265.18C267.34 273.783 270.758 282.035 276.841 288.118C279.854 291.131 283.43 293.52 287.366 295.15C291.301 296.781 295.52 297.62 299.78 297.62H429.53V297.5C430.3 297.5 431.06 297.62 431.84 297.62C440.493 297.622 448.836 294.395 455.236 288.571C461.636 282.747 465.633 274.744 466.444 266.129C467.256 257.514 464.824 248.906 459.624 241.989C454.425 235.072 446.831 230.344 438.33 228.73C439.335 222.644 438.58 216.397 436.155 210.726C433.73 205.054 429.736 200.193 424.641 196.714C419.547 193.236 413.566 191.285 407.4 191.091C401.235 190.897 395.143 192.468 389.84 195.62C383.796 185.674 374.383 178.229 363.313 174.638C352.244 171.048 340.253 171.55 329.522 176.054C318.791 180.558 310.034 188.765 304.844 199.181C299.653 209.597 298.374 221.53 301.24 232.81C300.75 232.81 300.24 232.74 299.78 232.74C295.52 232.74 291.301 233.579 287.366 235.209C283.43 236.839 279.854 239.229 276.841 242.241C270.758 248.325 267.34 256.576 267.34 265.18Z" fill="url(#paint1_linear_72008_15629)" stroke="#848B98" stroke-miterlimit="10"/>
</g>
<g clip-path="url(#clip4_72008_15629)">
<path d="M359.841 252C358.991 252 358.161 252.09 357.311 252.13C362.135 232.702 359.854 212.19 350.88 194.297C341.906 176.403 326.83 162.308 308.374 154.556C289.919 146.804 269.3 145.906 250.24 152.025C231.18 158.143 214.936 170.874 204.441 187.92C195.948 182.843 186.261 180.11 176.367 180.001C166.473 179.892 156.728 182.41 148.125 187.299C139.523 192.188 132.372 199.272 127.403 207.828C122.434 216.384 119.824 226.106 119.841 236C119.863 239.043 120.13 242.08 120.641 245.08C105.993 247.897 92.9197 256.069 83.9706 268.003C75.0216 279.936 70.8385 294.776 72.2371 309.626C73.6358 324.477 80.5159 338.274 91.5356 348.327C102.555 358.379 116.924 363.967 131.841 364C133.191 364 134.511 363.89 135.841 363.8V364H359.841C374.693 364 388.937 358.1 399.439 347.598C409.941 337.096 415.841 322.852 415.841 308C415.841 293.148 409.941 278.904 399.439 268.402C388.937 257.9 374.693 252 359.841 252Z" fill="url(#paint2_linear_72008_15629)" stroke="#5B6472" stroke-width="6" stroke-miterlimit="10"/>
</g>
</g>
</g>
<g clip-path="url(#clip5_72008_15629)">
<path d="M200 400C197.878 400 195.843 399.157 194.343 397.657C192.843 396.157 192 394.122 192 392V352C192 349.878 192.843 347.843 194.343 346.343C195.843 344.843 197.878 344 200 344C202.122 344 204.157 344.843 205.657 346.343C207.157 347.843 208 349.878 208 352V392C208 394.122 207.157 396.157 205.657 397.657C204.157 399.157 202.122 400 200 400Z" fill="url(#paint3_linear_72008_15629)" stroke="#0A5AD4" stroke-miterlimit="10"/>
<path d="M256 400C253.878 400 251.843 399.157 250.343 397.657C248.843 396.157 248 394.122 248 392V352C248 349.878 248.843 347.843 250.343 346.343C251.843 344.843 253.878 344 256 344C258.122 344 260.157 344.843 261.657 346.343C263.157 347.843 264 349.878 264 352V392C264 394.122 263.157 396.157 261.657 397.657C260.157 399.157 258.122 400 256 400Z" fill="url(#paint4_linear_72008_15629)" stroke="#0A5AD4" stroke-miterlimit="10"/>
<path d="M312 400C309.878 400 307.843 399.157 306.343 397.657C304.843 396.157 304 394.122 304 392V352C304 349.878 304.843 347.843 306.343 346.343C307.843 344.843 309.878 344 312 344C314.122 344 316.157 344.843 317.657 346.343C319.157 347.843 320 349.878 320 352V392C320 394.122 319.157 396.157 317.657 397.657C316.157 399.157 314.122 400 312 400Z" fill="url(#paint5_linear_72008_15629)" stroke="#0A5AD4" stroke-miterlimit="10"/>
</g>
<defs>
<linearGradient id="paint0_linear_72008_15629" x1="102.67" y1="139.56" x2="187.21" y2="285.99" gradientUnits="userSpaceOnUse">
<stop stop-color="#86C3DB"/>
<stop offset="0.45" stop-color="#86C3DB"/>
<stop offset="1" stop-color="#5EAFCF"/>
</linearGradient>
<linearGradient id="paint1_linear_72008_15629" x1="319.58" y1="181.62" x2="400.2" y2="321.27" gradientUnits="userSpaceOnUse">
<stop stop-color="#9CA3AF"/>
<stop offset="0.45" stop-color="#9CA3AF"/>
<stop offset="1" stop-color="#6B7280"/>
</linearGradient>
<linearGradient id="paint2_linear_72008_15629" x1="168.291" y1="175.68" x2="301.481" y2="406.37" gradientUnits="userSpaceOnUse">
<stop stop-color="#6B7280"/>
<stop offset="0.45" stop-color="#6B7280"/>
<stop offset="1" stop-color="#4B5563"/>
</linearGradient>
<linearGradient id="paint3_linear_72008_15629" x1="187.338" y1="350.077" x2="212.661" y2="393.935" gradientUnits="userSpaceOnUse">
<stop stop-color="#0B65ED"/>
<stop offset="0.45" stop-color="#0A5AD4"/>
<stop offset="1" stop-color="#0950BC"/>
</linearGradient>
<linearGradient id="paint4_linear_72008_15629" x1="243.336" y1="350.077" x2="268.658" y2="393.936" gradientUnits="userSpaceOnUse">
<stop stop-color="#0B65ED"/>
<stop offset="0.45" stop-color="#0A5AD4"/>
<stop offset="1" stop-color="#0950BC"/>
</linearGradient>
<linearGradient id="paint5_linear_72008_15629" x1="299.342" y1="350.075" x2="324.665" y2="393.934" gradientUnits="userSpaceOnUse">
<stop stop-color="#0B65ED"/>
<stop offset="0.45" stop-color="#0A5AD4"/>
<stop offset="1" stop-color="#0950BC"/>
</linearGradient>
<clipPath id="clip0_72008_15629">
<rect width="398.84" height="246" fill="white" transform="translate(68 121)"/>
</clipPath>
<clipPath id="clip1_72008_15629">
<rect width="172" height="172" fill="white" transform="translate(68 121)"/>
</clipPath>
<clipPath id="clip2_72008_15629">
<rect width="398" height="222" fill="white" transform="translate(68.8398 145)"/>
</clipPath>
<clipPath id="clip3_72008_15629">
<rect width="200.26" height="126.12" fill="white" transform="translate(266.84 172)"/>
</clipPath>
<clipPath id="clip4_72008_15629">
<rect width="350" height="222" fill="white" transform="translate(68.8398 145)"/>
</clipPath>
<clipPath id="clip5_72008_15629">
<rect width="129" height="57" fill="white" transform="translate(191.5 343.5)"/>
</clipPath>
</defs>
</svg>
