<svg width="513" height="512" viewBox="0 0 513 512" fill="none" xmlns="http://www.w3.org/2000/svg">
<g clip-path="url(#clip0_72008_15445)">
<g clip-path="url(#clip1_72008_15445)">
<path d="M267.84 265.2C267.84 273.793 271.253 282.034 277.33 288.11C283.406 294.187 291.647 297.6 300.24 297.6H430.04V297.5L432.34 297.6C440.928 297.494 449.174 294.215 455.491 288.394C461.807 282.574 465.748 274.623 466.554 266.071C467.361 257.52 464.977 248.973 459.86 242.073C454.744 235.174 447.257 230.411 438.84 228.7C439.812 222.623 439.034 216.395 436.596 210.745C434.158 205.094 430.161 200.254 425.073 196.793C419.985 193.331 414.017 191.389 407.865 191.196C401.714 191.002 395.635 192.565 390.34 195.7C384.274 185.813 374.872 178.421 363.832 174.86C352.792 171.299 340.842 171.805 330.143 176.285C319.443 180.766 310.698 188.925 305.489 199.29C300.28 209.655 298.95 221.541 301.74 232.8H300.24C291.664 232.8 283.438 236.2 277.365 242.255C271.292 248.309 267.866 256.525 267.84 265.1V265.2Z" fill="url(#paint0_linear_72008_15445)" stroke="#848B98" stroke-miterlimit="10"/>
</g>
<g clip-path="url(#clip2_72008_15445)">
<path d="M360.338 252L357.838 252.1C362.636 232.674 360.334 212.173 351.346 194.296C342.358 176.419 327.277 162.343 308.824 154.606C290.371 146.87 269.76 145.984 250.711 152.107C231.661 158.23 215.428 170.96 204.938 188C196.447 182.956 186.772 180.247 176.896 180.148C167.02 180.05 157.294 182.565 148.703 187.439C140.113 192.313 132.965 199.372 127.983 207.901C123.001 216.429 120.364 226.123 120.338 236C120.365 239.016 120.632 242.026 121.138 245C106.397 247.724 93.2103 255.868 84.1728 267.828C75.1354 279.788 70.9024 294.698 72.3071 309.623C73.7118 324.547 80.6524 338.406 91.7626 348.469C102.873 358.533 117.348 364.073 132.338 364L136.338 363.8V364H360.338C375.19 364 389.434 358.1 399.936 347.598C410.438 337.096 416.338 322.852 416.338 308C416.338 293.148 410.438 278.904 399.936 268.402C389.434 257.9 375.19 252 360.338 252Z" fill="url(#paint1_linear_72008_15445)" stroke="#5B6472" stroke-width="6" stroke-miterlimit="10"/>
</g>
</g>
<g clip-path="url(#clip3_72008_15445)">
<path d="M200.5 400C198.378 400 196.343 399.157 194.843 397.657C193.343 396.157 192.5 394.122 192.5 392V352C192.5 349.878 193.343 347.843 194.843 346.343C196.343 344.843 198.378 344 200.5 344C202.622 344 204.657 344.843 206.157 346.343C207.657 347.843 208.5 349.878 208.5 352V392C208.5 394.122 207.657 396.157 206.157 397.657C204.657 399.157 202.622 400 200.5 400Z" fill="url(#paint2_linear_72008_15445)" stroke="#0A5AD4" stroke-miterlimit="10"/>
<path d="M256.5 400C254.378 400 252.343 399.157 250.843 397.657C249.343 396.157 248.5 394.122 248.5 392V352C248.5 349.878 249.343 347.843 250.843 346.343C252.343 344.843 254.378 344 256.5 344C258.622 344 260.657 344.843 262.157 346.343C263.657 347.843 264.5 349.878 264.5 352V392C264.5 394.122 263.657 396.157 262.157 397.657C260.657 399.157 258.622 400 256.5 400Z" fill="url(#paint3_linear_72008_15445)" stroke="#0A5AD4" stroke-miterlimit="10"/>
<path d="M312.5 400C310.378 400 308.343 399.157 306.843 397.657C305.343 396.157 304.5 394.122 304.5 392V352C304.5 349.878 305.343 347.843 306.843 346.343C308.343 344.843 310.378 344 312.5 344C314.622 344 316.657 344.843 318.157 346.343C319.657 347.843 320.5 349.878 320.5 352V392C320.5 394.122 319.657 396.157 318.157 397.657C316.657 399.157 314.622 400 312.5 400Z" fill="url(#paint4_linear_72008_15445)" stroke="#0A5AD4" stroke-miterlimit="10"/>
</g>
<defs>
<linearGradient id="paint0_linear_72008_15445" x1="320.04" y1="181.6" x2="400.74" y2="321.3" gradientUnits="userSpaceOnUse">
<stop stop-color="#9CA3AF"/>
<stop offset="0.5" stop-color="#9CA3AF"/>
<stop offset="1" stop-color="#6B7280"/>
</linearGradient>
<linearGradient id="paint1_linear_72008_15445" x1="168.838" y1="175.7" x2="301.938" y2="406.4" gradientUnits="userSpaceOnUse">
<stop stop-color="#6B7280"/>
<stop offset="0.5" stop-color="#6B7280"/>
<stop offset="1" stop-color="#4B5563"/>
</linearGradient>
<linearGradient id="paint2_linear_72008_15445" x1="187.813" y1="350.05" x2="213.189" y2="393.921" gradientUnits="userSpaceOnUse">
<stop stop-color="#0B65ED"/>
<stop offset="0.5" stop-color="#0A5AD4"/>
<stop offset="1" stop-color="#0950BC"/>
</linearGradient>
<linearGradient id="paint3_linear_72008_15445" x1="243.826" y1="350.079" x2="269.201" y2="393.949" gradientUnits="userSpaceOnUse">
<stop stop-color="#0B65ED"/>
<stop offset="0.5" stop-color="#0A5AD4"/>
<stop offset="1" stop-color="#0950BC"/>
</linearGradient>
<linearGradient id="paint4_linear_72008_15445" x1="299.828" y1="350.118" x2="325.188" y2="393.89" gradientUnits="userSpaceOnUse">
<stop stop-color="#0B65ED"/>
<stop offset="0.5" stop-color="#0A5AD4"/>
<stop offset="1" stop-color="#0950BC"/>
</linearGradient>
<clipPath id="clip0_72008_15445">
<rect width="398" height="222" fill="white" transform="translate(69.3398 145)"/>
</clipPath>
<clipPath id="clip1_72008_15445">
<rect width="200.3" height="126.1" fill="white" transform="translate(267.34 172)"/>
</clipPath>
<clipPath id="clip2_72008_15445">
<rect width="350" height="222" fill="white" transform="translate(69.3398 145)"/>
</clipPath>
<clipPath id="clip3_72008_15445">
<rect width="129" height="57" fill="white" transform="translate(192 343.5)"/>
</clipPath>
</defs>
</svg>
