<svg width="512" height="512" viewBox="0 0 512 512" fill="none" xmlns="http://www.w3.org/2000/svg">
<g clip-path="url(#clip0_72008_15660)">
<g clip-path="url(#clip1_72008_15660)">
<path d="M228.62 228.4C181.45 228.4 143.21 190.67 143.21 144.14C143.231 137.003 144.168 129.898 146 123C103.27 127.61 70 163.33 70 206.73C70 253.27 108.24 291 155.41 291C174.215 291.073 192.515 284.919 207.455 273.499C222.395 262.079 233.135 246.035 238 227.87C234.885 228.214 231.754 228.39 228.62 228.4Z" fill="url(#paint0_linear_72008_15660)" stroke="#72B9D5" stroke-width="4" stroke-linecap="round" stroke-linejoin="round"/>
</g>
<g clip-path="url(#clip2_72008_15660)">
<g clip-path="url(#clip3_72008_15660)">
<path d="M267.34 265.18C267.34 273.783 270.758 282.035 276.841 288.118C279.854 291.131 283.43 293.52 287.366 295.15C291.301 296.781 295.52 297.62 299.78 297.62H429.53V297.5C430.3 297.5 431.06 297.62 431.84 297.62C440.493 297.622 448.836 294.395 455.236 288.571C461.636 282.747 465.633 274.744 466.444 266.129C467.256 257.514 464.824 248.906 459.624 241.989C454.425 235.072 446.831 230.344 438.33 228.73C439.335 222.644 438.58 216.397 436.155 210.726C433.73 205.054 429.736 200.193 424.641 196.714C419.547 193.236 413.566 191.285 407.4 191.091C401.235 190.897 395.143 192.468 389.84 195.62C383.796 185.674 374.383 178.229 363.313 174.638C352.244 171.048 340.253 171.55 329.522 176.054C318.791 180.558 310.034 188.765 304.844 199.181C299.653 209.597 298.374 221.53 301.24 232.81C300.75 232.81 300.24 232.74 299.78 232.74C295.52 232.74 291.301 233.579 287.366 235.209C283.43 236.839 279.854 239.229 276.841 242.241C270.758 248.325 267.34 256.576 267.34 265.18Z" fill="url(#paint1_linear_72008_15660)" stroke="#848B98" stroke-miterlimit="10"/>
</g>
<g clip-path="url(#clip4_72008_15660)">
<path d="M359.841 252C358.991 252 358.161 252.09 357.311 252.13C362.135 232.702 359.854 212.19 350.88 194.297C341.906 176.403 326.83 162.308 308.374 154.556C289.919 146.804 269.3 145.906 250.24 152.025C231.18 158.143 214.936 170.874 204.441 187.92C195.948 182.843 186.261 180.11 176.367 180.001C166.473 179.892 156.728 182.41 148.125 187.299C139.523 192.188 132.372 199.272 127.403 207.828C122.434 216.384 119.824 226.106 119.841 236C119.863 239.043 120.13 242.08 120.641 245.08C105.993 247.897 92.9197 256.069 83.9706 268.003C75.0216 279.936 70.8385 294.776 72.2371 309.626C73.6358 324.477 80.5159 338.274 91.5356 348.327C102.555 358.379 116.924 363.967 131.841 364C133.191 364 134.511 363.89 135.841 363.8V364H359.841C374.693 364 388.937 358.1 399.439 347.598C409.941 337.096 415.841 322.852 415.841 308C415.841 293.148 409.941 278.904 399.439 268.402C388.937 257.9 374.693 252 359.841 252Z" fill="url(#paint2_linear_72008_15660)" stroke="#5B6472" stroke-width="6" stroke-miterlimit="10"/>
</g>
</g>
</g>
<g clip-path="url(#clip5_72008_15660)">
<path d="M219.569 368.5L213.789 365.2C214.304 363.074 214.304 360.856 213.789 358.73L219.569 355.5C220.025 355.24 220.426 354.892 220.748 354.476C221.07 354.061 221.307 353.586 221.445 353.079C221.584 352.572 221.621 352.043 221.554 351.521C221.488 351 221.32 350.496 221.059 350.04C220.525 349.104 219.644 348.417 218.606 348.128C217.568 347.84 216.458 347.974 215.519 348.5L209.729 351.8C208.933 351.029 208.047 350.357 207.089 349.8C206.143 349.257 205.136 348.827 204.089 348.52V342C204.089 340.926 203.662 339.896 202.902 339.136C202.143 338.377 201.113 337.95 200.039 337.95C198.964 337.95 197.934 338.377 197.175 339.136C196.415 339.896 195.989 340.926 195.989 342V348.6C193.867 349.221 191.919 350.327 190.299 351.83L184.479 348.5C184.014 348.232 183.501 348.057 182.969 347.987C182.436 347.917 181.896 347.953 181.377 348.092C180.859 348.232 180.373 348.472 179.948 348.799C179.523 349.127 179.166 349.535 178.899 350C178.633 350.461 178.462 350.969 178.395 351.497C178.328 352.024 178.367 352.559 178.51 353.071C178.652 353.583 178.895 354.062 179.225 354.479C179.554 354.896 179.963 355.243 180.429 355.5L186.209 358.8C185.694 360.926 185.694 363.144 186.209 365.27L180.429 368.5C179.963 368.757 179.554 369.104 179.225 369.522C178.895 369.939 178.652 370.417 178.51 370.929C178.367 371.441 178.328 371.977 178.395 372.504C178.462 373.031 178.633 373.54 178.899 374C179.261 374.611 179.776 375.117 180.393 375.468C181.01 375.818 181.709 376.002 182.419 376C183.121 375.999 183.811 375.813 184.419 375.46L190.209 372.16C191.004 372.932 191.89 373.603 192.849 374.16C193.795 374.7 194.802 375.127 195.849 375.43V382C195.849 383.074 196.275 384.104 197.035 384.864C197.794 385.623 198.824 386.05 199.899 386.05C200.973 386.05 202.003 385.623 202.762 384.864C203.522 384.104 203.949 383.074 203.949 382V375.39C206.067 374.769 208.012 373.663 209.629 372.16L215.519 375.5C216.126 375.853 216.816 376.039 217.519 376.04C218.229 376.042 218.927 375.858 219.544 375.508C220.162 375.157 220.677 374.651 221.039 374.04C221.313 373.582 221.493 373.073 221.567 372.544C221.642 372.015 221.61 371.476 221.473 370.96C221.336 370.444 221.097 369.96 220.77 369.537C220.443 369.115 220.034 368.762 219.569 368.5ZM196.959 367.2C196.274 366.808 195.673 366.285 195.191 365.66C194.708 365.036 194.354 364.322 194.148 363.561C193.941 362.799 193.887 362.004 193.989 361.222C194.09 360.439 194.345 359.684 194.739 359C195.279 358.084 196.05 357.325 196.974 356.799C197.899 356.273 198.945 355.997 200.009 356C201.061 356.006 202.093 356.282 203.009 356.8C203.693 357.192 204.294 357.715 204.777 358.34C205.259 358.964 205.613 359.678 205.82 360.44C206.026 361.201 206.08 361.996 205.978 362.779C205.877 363.561 205.622 364.316 205.229 365C204.411 366.375 203.088 367.375 201.542 367.786C199.996 368.197 198.351 367.987 196.959 367.2Z" fill="url(#paint3_linear_72008_15660)" stroke="#86C3DB" stroke-miterlimit="10"/>
<path d="M275.569 368.5L269.789 365.2C270.304 363.074 270.304 360.856 269.789 358.73L275.569 355.5C276.025 355.24 276.426 354.892 276.748 354.476C277.07 354.061 277.307 353.586 277.445 353.079C277.584 352.572 277.621 352.043 277.554 351.521C277.488 351 277.32 350.496 277.059 350.04C276.526 349.104 275.644 348.417 274.606 348.128C273.568 347.84 272.458 347.974 271.519 348.5L265.729 351.8C264.933 351.029 264.047 350.357 263.089 349.8C262.143 349.257 261.136 348.827 260.089 348.52V342C260.089 340.926 259.662 339.896 258.902 339.136C258.143 338.377 257.113 337.95 256.039 337.95C254.964 337.95 253.934 338.377 253.175 339.136C252.415 339.896 251.989 340.926 251.989 342V348.6C249.867 349.221 247.919 350.327 246.299 351.83L240.479 348.5C240.014 348.232 239.501 348.057 238.969 347.987C238.436 347.917 237.896 347.953 237.377 348.092C236.859 348.232 236.373 348.472 235.948 348.799C235.523 349.127 235.166 349.535 234.899 350C234.633 350.461 234.462 350.969 234.395 351.497C234.328 352.024 234.367 352.559 234.51 353.071C234.652 353.583 234.895 354.062 235.225 354.479C235.554 354.896 235.963 355.243 236.429 355.5L242.209 358.8C241.694 360.926 241.694 363.144 242.209 365.27L236.429 368.5C235.963 368.757 235.554 369.104 235.225 369.522C234.895 369.939 234.652 370.417 234.51 370.929C234.367 371.441 234.328 371.977 234.395 372.504C234.462 373.031 234.633 373.54 234.899 374C235.261 374.611 235.776 375.117 236.393 375.468C237.01 375.818 237.709 376.002 238.419 376C239.121 375.999 239.811 375.813 240.419 375.46L246.209 372.16C247.004 372.932 247.89 373.603 248.849 374.16C249.795 374.7 250.802 375.127 251.849 375.43V382C251.849 383.074 252.275 384.104 253.035 384.864C253.794 385.623 254.824 386.05 255.899 386.05C256.973 386.05 258.003 385.623 258.762 384.864C259.522 384.104 259.949 383.074 259.949 382V375.39C262.067 374.769 264.012 373.663 265.629 372.16L271.519 375.5C272.126 375.853 272.816 376.039 273.519 376.04C274.229 376.042 274.927 375.858 275.544 375.508C276.162 375.157 276.677 374.651 277.039 374.04C277.313 373.582 277.493 373.073 277.567 372.544C277.642 372.015 277.61 371.476 277.473 370.96C277.336 370.444 277.097 369.96 276.77 369.537C276.443 369.115 276.034 368.762 275.569 368.5ZM252.959 367.2C252.274 366.808 251.673 366.285 251.191 365.66C250.708 365.036 250.354 364.322 250.148 363.561C249.941 362.799 249.887 362.004 249.989 361.222C250.09 360.439 250.345 359.684 250.739 359C251.279 358.084 252.05 357.325 252.974 356.799C253.899 356.273 254.945 355.997 256.009 356C257.061 356.006 258.093 356.282 259.009 356.8C259.693 357.192 260.294 357.715 260.777 358.34C261.259 358.964 261.613 359.678 261.82 360.44C262.026 361.201 262.08 361.996 261.978 362.779C261.877 363.561 261.622 364.316 261.229 365C260.411 366.375 259.088 367.375 257.542 367.786C255.996 368.197 254.351 367.987 252.959 367.2Z" fill="url(#paint4_linear_72008_15660)" stroke="#86C3DB" stroke-miterlimit="10"/>
<path d="M331.569 368.5L325.789 365.2C326.304 363.074 326.304 360.856 325.789 358.73L331.569 355.5C332.025 355.24 332.426 354.892 332.748 354.476C333.07 354.061 333.307 353.586 333.445 353.079C333.584 352.572 333.621 352.043 333.554 351.521C333.488 351 333.32 350.496 333.059 350.04C332.526 349.104 331.644 348.417 330.606 348.128C329.568 347.84 328.458 347.974 327.519 348.5L321.729 351.8C320.933 351.029 320.047 350.357 319.089 349.8C318.143 349.257 317.136 348.827 316.089 348.52V342C316.089 340.926 315.662 339.896 314.902 339.136C314.143 338.377 313.113 337.95 312.039 337.95C310.964 337.95 309.934 338.377 309.175 339.136C308.415 339.896 307.989 340.926 307.989 342V348.6C305.867 349.221 303.919 350.327 302.299 351.83L296.479 348.5C296.014 348.232 295.501 348.057 294.969 347.987C294.436 347.917 293.896 347.953 293.377 348.092C292.859 348.232 292.373 348.472 291.948 348.799C291.523 349.127 291.166 349.535 290.899 350C290.633 350.461 290.462 350.969 290.395 351.497C290.328 352.024 290.367 352.559 290.51 353.071C290.652 353.583 290.895 354.062 291.225 354.479C291.554 354.896 291.963 355.243 292.429 355.5L298.209 358.8C297.694 360.926 297.694 363.144 298.209 365.27L292.429 368.5C291.963 368.757 291.554 369.104 291.225 369.522C290.895 369.939 290.652 370.417 290.51 370.929C290.367 371.441 290.328 371.977 290.395 372.504C290.462 373.031 290.633 373.54 290.899 374C291.261 374.611 291.776 375.117 292.393 375.468C293.01 375.818 293.709 376.002 294.419 376C295.121 375.999 295.811 375.813 296.419 375.46L302.209 372.16C303.004 372.932 303.89 373.603 304.849 374.16C305.795 374.7 306.802 375.127 307.849 375.43V382C307.849 383.074 308.275 384.104 309.035 384.864C309.794 385.623 310.824 386.05 311.899 386.05C312.973 386.05 314.003 385.623 314.762 384.864C315.522 384.104 315.949 383.074 315.949 382V375.39C318.067 374.769 320.012 373.663 321.629 372.16L327.419 375.46C328.026 375.813 328.716 375.999 329.419 376C330.129 376.002 330.827 375.818 331.444 375.468C332.062 375.117 332.577 374.611 332.939 374C333.211 373.549 333.391 373.049 333.47 372.529C333.548 372.008 333.523 371.477 333.396 370.966C333.269 370.455 333.042 369.974 332.728 369.551C332.415 369.128 332.02 368.771 331.569 368.5ZM308.959 367.2C308.274 366.808 307.673 366.285 307.191 365.66C306.708 365.036 306.354 364.322 306.148 363.561C305.941 362.799 305.887 362.004 305.989 361.222C306.09 360.439 306.345 359.684 306.739 359C307.279 358.084 308.05 357.325 308.974 356.799C309.899 356.273 310.945 355.997 312.009 356C313.061 356.006 314.093 356.282 315.009 356.8C315.693 357.192 316.294 357.715 316.777 358.34C317.259 358.964 317.613 359.678 317.82 360.44C318.026 361.201 318.08 361.996 317.978 362.779C317.877 363.561 317.622 364.316 317.229 365C316.411 366.375 315.088 367.375 313.542 367.786C311.996 368.197 310.351 367.987 308.959 367.2Z" fill="url(#paint5_linear_72008_15660)" stroke="#86C3DB" stroke-miterlimit="10"/>
</g>
<defs>
<linearGradient id="paint0_linear_72008_15660" x1="102.67" y1="139.56" x2="187.21" y2="285.99" gradientUnits="userSpaceOnUse">
<stop stop-color="#86C3DB"/>
<stop offset="0.45" stop-color="#86C3DB"/>
<stop offset="1" stop-color="#5EAFCF"/>
</linearGradient>
<linearGradient id="paint1_linear_72008_15660" x1="319.58" y1="181.62" x2="400.2" y2="321.27" gradientUnits="userSpaceOnUse">
<stop stop-color="#9CA3AF"/>
<stop offset="0.45" stop-color="#9CA3AF"/>
<stop offset="1" stop-color="#6B7280"/>
</linearGradient>
<linearGradient id="paint2_linear_72008_15660" x1="168.291" y1="175.68" x2="301.481" y2="406.37" gradientUnits="userSpaceOnUse">
<stop stop-color="#6B7280"/>
<stop offset="0.45" stop-color="#6B7280"/>
<stop offset="1" stop-color="#4B5563"/>
</linearGradient>
<linearGradient id="paint3_linear_72008_15660" x1="189.279" y1="343.43" x2="210.719" y2="380.57" gradientUnits="userSpaceOnUse">
<stop stop-color="#86C3DB"/>
<stop offset="0.45" stop-color="#86C3DB"/>
<stop offset="1" stop-color="#5EAFCF"/>
</linearGradient>
<linearGradient id="paint4_linear_72008_15660" x1="245.279" y1="343.43" x2="266.719" y2="380.57" gradientUnits="userSpaceOnUse">
<stop stop-color="#86C3DB"/>
<stop offset="0.45" stop-color="#86C3DB"/>
<stop offset="1" stop-color="#5EAFCF"/>
</linearGradient>
<linearGradient id="paint5_linear_72008_15660" x1="301.279" y1="343.43" x2="322.719" y2="380.57" gradientUnits="userSpaceOnUse">
<stop stop-color="#86C3DB"/>
<stop offset="0.45" stop-color="#86C3DB"/>
<stop offset="1" stop-color="#5EAFCF"/>
</linearGradient>
<clipPath id="clip0_72008_15660">
<rect width="398.84" height="246" fill="white" transform="translate(68 121)"/>
</clipPath>
<clipPath id="clip1_72008_15660">
<rect width="172" height="172" fill="white" transform="translate(68 121)"/>
</clipPath>
<clipPath id="clip2_72008_15660">
<rect width="398" height="222" fill="white" transform="translate(68.8398 145)"/>
</clipPath>
<clipPath id="clip3_72008_15660">
<rect width="200.26" height="126.12" fill="white" transform="translate(266.84 172)"/>
</clipPath>
<clipPath id="clip4_72008_15660">
<rect width="350" height="222" fill="white" transform="translate(68.8398 145)"/>
</clipPath>
<clipPath id="clip5_72008_15660">
<rect width="156.2" height="49" fill="white" transform="translate(177.898 337.5)"/>
</clipPath>
</defs>
</svg>
