<svg width="512" height="512" viewBox="0 0 512 512" fill="none" xmlns="http://www.w3.org/2000/svg">
<g clip-path="url(#clip0_72008_14828)">
<mask id="mask0_72008_14828" style="mask-type:luminance" maskUnits="userSpaceOnUse" x="0" y="0" width="512" height="512">
<path d="M512 0H0V512H512V0Z" fill="white"/>
</mask>
<g mask="url(#mask0_72008_14828)">
<path d="M195.938 196C195.938 218.091 178.028 236 155.938 236C133.847 236 115.938 218.091 115.938 196C115.938 173.909 133.847 156 155.938 156C178.028 156 195.938 173.909 195.938 196Z" fill="url(#paint0_linear_72008_14828)"/>
<path d="M195.938 196C195.938 218.091 178.028 236 155.938 236C133.847 236 115.938 218.091 115.938 196C115.938 173.909 133.847 156 155.938 156C178.028 156 195.938 173.909 195.938 196Z" stroke="#F7AF17" stroke-width="4" stroke-miterlimit="10"/>
<path d="M183.659 135.421L194.22 112.343M117.657 279.657L128.217 256.58M218.376 172.766L242.162 163.915M69.7143 228.086L93.5003 219.235M132.704 133.562L123.853 109.776M188.024 282.224L179.173 258.438M72.281 157.719L95.3586 168.279M239.595 234.282L216.518 223.721" stroke="#FABE24" stroke-width="12" stroke-miterlimit="10" stroke-linecap="round"/>
<path d="M278.125 264.562C278.125 282.477 292.648 297 310.563 297H440.313V296.883C441.082 296.934 441.848 297 442.63 297C461.824 297 477.384 281.439 477.384 262.245C477.384 245.27 465.208 231.159 449.117 228.118C449.398 226.402 449.581 224.653 449.581 222.857C449.581 204.942 435.058 190.419 417.143 190.419C411.083 190.419 405.432 192.111 400.579 195.004C392.004 181.146 376.712 171.884 359.219 171.884C332.347 171.884 310.563 193.668 310.563 220.54C310.563 224.566 311.106 228.457 312.028 232.199C311.539 232.177 311.058 232.125 310.563 232.125C292.648 232.125 278.125 246.647 278.125 264.562Z" fill="url(#paint1_linear_72008_14828)"/>
<path d="M278.125 264.562C278.125 282.477 292.648 297 310.563 297H440.313V296.883C441.082 296.934 441.848 297 442.63 297C461.824 297 477.384 281.439 477.384 262.245C477.384 245.27 465.208 231.159 449.117 228.118C449.398 226.402 449.581 224.653 449.581 222.857C449.581 204.942 435.058 190.419 417.143 190.419C411.083 190.419 405.432 192.111 400.579 195.004C392.004 181.146 376.712 171.884 359.219 171.884C332.347 171.884 310.563 193.668 310.563 220.54C310.563 224.566 311.106 228.457 312.028 232.199C311.539 232.177 311.058 232.125 310.563 232.125C292.648 232.125 278.125 246.647 278.125 264.562Z" stroke="#838B98" stroke-miterlimit="10"/>
<path d="M378.688 252C377.834 252 377.003 252.089 376.159 252.127C377.751 245.668 378.688 238.951 378.688 232C378.688 185.608 341.079 148 294.688 148C264.486 148 238.087 163.991 223.284 187.915C214.906 182.921 205.148 180 194.688 180C163.759 180 138.688 205.072 138.688 236C138.688 239.1 139.005 242.12 139.489 245.083C111.71 250.333 90.6875 274.694 90.6875 304C90.6875 337.137 117.551 364 150.688 364C152.038 364 153.359 363.886 154.688 363.798V364H378.688C409.615 364 434.688 338.928 434.688 308C434.688 277.072 409.615 252 378.688 252Z" fill="url(#paint2_linear_72008_14828)"/>
<path d="M378.688 252C377.834 252 377.003 252.089 376.159 252.127C377.751 245.668 378.688 238.951 378.688 232C378.688 185.608 341.079 148 294.688 148C264.486 148 238.087 163.991 223.284 187.915C214.906 182.921 205.148 180 194.688 180C163.759 180 138.688 205.072 138.688 236C138.688 239.1 139.005 242.12 139.489 245.083C111.71 250.333 90.6875 274.694 90.6875 304C90.6875 337.137 117.551 364 150.688 364C152.038 364 153.359 363.886 154.688 363.798V364H378.688C409.615 364 434.688 338.928 434.688 308C434.688 277.072 409.615 252 378.688 252Z" stroke="#D0D9E7" stroke-width="6" stroke-miterlimit="10"/>
</g>
</g>
<defs>
<linearGradient id="paint0_linear_72008_14828" x1="134.937" y1="161" x2="174.944" y2="230.294" gradientUnits="userSpaceOnUse">
<stop stop-color="#FBBF24"/>
<stop offset="0.22" stop-color="#FBBF24"/>
<stop offset="0.45" stop-color="#FBBF24"/>
<stop offset="0.73" stop-color="#F8AE17"/>
<stop offset="1" stop-color="#F59E0B"/>
</linearGradient>
<linearGradient id="paint1_linear_72008_14828" x1="330.313" y1="181" x2="410.937" y2="320.645" gradientUnits="userSpaceOnUse">
<stop stop-color="#9CA3AF"/>
<stop offset="0.22" stop-color="#9CA3AF"/>
<stop offset="0.45" stop-color="#9CA3AF"/>
<stop offset="0.73" stop-color="#848A97"/>
<stop offset="1" stop-color="#6B7280"/>
</linearGradient>
<linearGradient id="paint2_linear_72008_14828" x1="186.687" y1="175" x2="319.874" y2="405.685" gradientUnits="userSpaceOnUse">
<stop stop-color="#E5EFFF"/>
<stop offset="0.49" stop-color="#EAF2FF"/>
<stop offset="1" stop-color="#D9E9FF"/>
</linearGradient>
<clipPath id="clip0_72008_14828">
<rect width="512" height="512" fill="white"/>
</clipPath>
</defs>
</svg>
