<svg width="513" height="512" viewBox="0 0 513 512" fill="none" xmlns="http://www.w3.org/2000/svg">
<g clip-path="url(#clip0_72008_15119)">
<g clip-path="url(#clip1_72008_15119)">
<path d="M267.84 265.18C267.84 273.784 271.258 282.035 277.341 288.119C280.354 291.131 283.93 293.521 287.866 295.151C291.801 296.781 296.02 297.62 300.28 297.62H430.03V297.5C430.8 297.5 431.56 297.62 432.34 297.62C440.993 297.622 449.336 294.395 455.736 288.571C462.136 282.747 466.133 274.745 466.944 266.13C467.756 257.514 465.324 248.906 460.124 241.99C454.925 235.073 447.331 230.345 438.83 228.73C439.835 222.644 439.08 216.398 436.655 210.726C434.23 205.054 430.236 200.193 425.141 196.715C420.047 193.237 414.066 191.286 407.9 191.092C401.735 190.898 395.643 192.469 390.34 195.62C384.296 185.675 374.883 178.23 363.813 174.639C352.744 171.048 340.753 171.55 330.022 176.055C319.291 180.559 310.534 188.766 305.344 199.182C300.153 209.598 298.874 221.531 301.74 232.81C301.25 232.81 300.74 232.74 300.28 232.74C296.02 232.74 291.801 233.579 287.866 235.21C283.93 236.84 280.354 239.229 277.341 242.242C271.258 248.325 267.84 256.577 267.84 265.18Z" fill="url(#paint0_linear_72008_15119)" stroke="#848B98" stroke-miterlimit="10"/>
</g>
<path d="M360 252C359.146 252 358.315 252.089 357.471 252.127C359.063 245.668 360 238.951 360 232C360 185.608 322.392 148 276 148C245.799 148 219.399 163.991 204.596 187.915C196.218 182.921 186.461 180 176 180C145.072 180 120 205.072 120 236C120 239.1 120.317 242.12 120.801 245.083C93.022 250.333 72 274.694 72 304C72 337.137 98.863 364 132 364C133.351 364 134.672 363.886 136 363.798V364H360C390.928 364 416 338.928 416 308C416 277.072 390.928 252 360 252Z" fill="url(#paint1_linear_72008_15119)"/>
<path d="M360 252C359.146 252 358.315 252.089 357.471 252.127C359.063 245.668 360 238.951 360 232C360 185.608 322.392 148 276 148C245.799 148 219.399 163.991 204.596 187.915C196.218 182.921 186.461 180 176 180C145.072 180 120 205.072 120 236C120 239.1 120.317 242.12 120.801 245.083C93.022 250.333 72 274.694 72 304C72 337.137 98.863 364 132 364C133.351 364 134.672 363.886 136 363.798V364H360C390.928 364 416 338.928 416 308C416 277.072 390.928 252 360 252Z" stroke="#D0D9E7" stroke-width="6" stroke-miterlimit="10"/>
</g>
<path d="M188.307 368.5L182.527 365.2C183.042 363.074 183.042 360.856 182.527 358.73L188.307 355.5C188.763 355.24 189.164 354.892 189.486 354.476C189.808 354.061 190.045 353.586 190.183 353.079C190.322 352.572 190.359 352.043 190.293 351.521C190.226 351 190.058 350.496 189.797 350.04C189.264 349.104 188.382 348.417 187.344 348.128C186.306 347.84 185.197 347.974 184.257 348.5L178.467 351.8C177.672 351.029 176.785 350.357 175.827 349.8C174.881 349.257 173.874 348.827 172.827 348.52V342C172.827 340.926 172.4 339.896 171.641 339.136C170.881 338.377 169.851 337.95 168.777 337.95C167.703 337.95 166.673 338.377 165.913 339.136C165.154 339.896 164.727 340.926 164.727 342V348.6C162.605 349.221 160.657 350.327 159.037 351.83L153.217 348.5C152.752 348.232 152.239 348.057 151.707 347.987C151.175 347.917 150.634 347.953 150.116 348.092C149.597 348.232 149.111 348.472 148.686 348.799C148.261 349.127 147.904 349.535 147.637 350C147.371 350.461 147.2 350.969 147.133 351.497C147.066 352.024 147.105 352.559 147.248 353.071C147.39 353.583 147.633 354.062 147.963 354.479C148.292 354.896 148.702 355.243 149.167 355.5L154.947 358.8C154.432 360.926 154.432 363.144 154.947 365.27L149.167 368.5C148.702 368.757 148.292 369.104 147.963 369.522C147.633 369.939 147.39 370.417 147.248 370.929C147.105 371.441 147.066 371.977 147.133 372.504C147.2 373.031 147.371 373.54 147.637 374C147.999 374.611 148.514 375.117 149.131 375.468C149.749 375.818 150.447 376.002 151.157 376C151.859 375.999 152.549 375.813 153.157 375.46L158.947 372.16C159.742 372.932 160.629 373.603 161.587 374.16C162.533 374.7 163.54 375.127 164.587 375.43V382C164.587 383.074 165.014 384.104 165.773 384.864C166.533 385.623 167.563 386.05 168.637 386.05C169.711 386.05 170.741 385.623 171.501 384.864C172.26 384.104 172.687 383.074 172.687 382V375.39C174.805 374.769 176.75 373.663 178.367 372.16L184.257 375.5C184.865 375.853 185.554 376.039 186.257 376.04C186.967 376.042 187.665 375.858 188.282 375.508C188.9 375.157 189.415 374.651 189.777 374.04C190.051 373.582 190.231 373.073 190.306 372.544C190.38 372.015 190.348 371.476 190.211 370.96C190.074 370.444 189.835 369.96 189.508 369.537C189.181 369.115 188.772 368.762 188.307 368.5ZM165.697 367.2C165.012 366.808 164.411 366.285 163.929 365.66C163.446 365.036 163.092 364.322 162.886 363.561C162.68 362.799 162.626 362.004 162.727 361.222C162.829 360.439 163.083 359.684 163.477 359C164.017 358.084 164.788 357.325 165.713 356.799C166.637 356.273 167.683 355.997 168.747 356C169.799 356.006 170.832 356.282 171.747 356.8C172.432 357.192 173.033 357.715 173.515 358.34C173.997 358.964 174.352 359.678 174.558 360.44C174.764 361.201 174.818 361.996 174.717 362.779C174.615 363.561 174.36 364.316 173.967 365C173.149 366.375 171.826 367.375 170.28 367.786C168.735 368.197 167.089 367.987 165.697 367.2Z" fill="url(#paint2_linear_72008_15119)" stroke="#86C3DB" stroke-miterlimit="10"/>
<path d="M244.307 368.5L238.527 365.2C239.042 363.074 239.042 360.856 238.527 358.73L244.307 355.5C244.763 355.24 245.164 354.892 245.486 354.476C245.808 354.061 246.045 353.586 246.183 353.079C246.322 352.572 246.359 352.043 246.293 351.521C246.226 351 246.058 350.496 245.797 350.04C245.264 349.104 244.382 348.417 243.344 348.128C242.306 347.84 241.197 347.974 240.257 348.5L234.467 351.8C233.672 351.029 232.785 350.357 231.827 349.8C230.881 349.257 229.874 348.827 228.827 348.52V342C228.827 340.926 228.4 339.896 227.641 339.136C226.881 338.377 225.851 337.95 224.777 337.95C223.703 337.95 222.673 338.377 221.913 339.136C221.154 339.896 220.727 340.926 220.727 342V348.6C218.605 349.221 216.657 350.327 215.037 351.83L209.217 348.5C208.752 348.232 208.239 348.057 207.707 347.987C207.175 347.917 206.634 347.953 206.116 348.092C205.597 348.232 205.111 348.472 204.686 348.799C204.261 349.127 203.904 349.535 203.637 350C203.371 350.461 203.2 350.969 203.133 351.497C203.066 352.024 203.105 352.559 203.248 353.071C203.39 353.583 203.633 354.062 203.963 354.479C204.292 354.896 204.702 355.243 205.167 355.5L210.947 358.8C210.432 360.926 210.432 363.144 210.947 365.27L205.167 368.5C204.702 368.757 204.292 369.104 203.963 369.522C203.633 369.939 203.39 370.417 203.248 370.929C203.105 371.441 203.066 371.977 203.133 372.504C203.2 373.031 203.371 373.54 203.637 374C203.999 374.611 204.514 375.117 205.131 375.468C205.749 375.818 206.447 376.002 207.157 376C207.859 375.999 208.549 375.813 209.157 375.46L214.947 372.16C215.742 372.932 216.629 373.603 217.587 374.16C218.533 374.7 219.54 375.127 220.587 375.43V382C220.587 383.074 221.014 384.104 221.773 384.864C222.533 385.623 223.563 386.05 224.637 386.05C225.711 386.05 226.741 385.623 227.501 384.864C228.26 384.104 228.687 383.074 228.687 382V375.39C230.805 374.769 232.75 373.663 234.367 372.16L240.257 375.5C240.865 375.853 241.554 376.039 242.257 376.04C242.967 376.042 243.665 375.858 244.282 375.508C244.9 375.157 245.415 374.651 245.777 374.04C246.051 373.582 246.231 373.073 246.306 372.544C246.38 372.015 246.348 371.476 246.211 370.96C246.074 370.444 245.835 369.96 245.508 369.537C245.181 369.115 244.772 368.762 244.307 368.5ZM221.697 367.2C221.012 366.808 220.411 366.285 219.929 365.66C219.446 365.036 219.092 364.322 218.886 363.561C218.68 362.799 218.626 362.004 218.727 361.222C218.828 360.439 219.083 359.684 219.477 359C220.017 358.084 220.788 357.325 221.713 356.799C222.637 356.273 223.683 355.997 224.747 356C225.799 356.006 226.832 356.282 227.747 356.8C228.432 357.192 229.033 357.715 229.515 358.34C229.997 358.964 230.352 359.678 230.558 360.44C230.764 361.201 230.818 361.996 230.717 362.779C230.615 363.561 230.36 364.316 229.967 365C229.149 366.375 227.826 367.375 226.28 367.786C224.735 368.197 223.089 367.987 221.697 367.2Z" fill="url(#paint3_linear_72008_15119)" stroke="#86C3DB" stroke-miterlimit="10"/>
<path d="M279.102 376C276.98 376 274.945 375.157 273.445 373.657C271.944 372.157 271.102 370.122 271.102 368V356C271.102 353.878 271.944 351.843 273.445 350.343C274.945 348.843 276.98 348 279.102 348C281.223 348 283.258 348.843 284.758 350.343C286.259 351.843 287.102 353.878 287.102 356V368C287.102 370.122 286.259 372.157 284.758 373.657C283.258 375.157 281.223 376 279.102 376Z" fill="url(#paint4_linear_72008_15119)" stroke="#0A5AD4" stroke-miterlimit="10"/>
<path d="M322.102 376C319.98 376 317.945 375.157 316.445 373.657C314.944 372.157 314.102 370.122 314.102 368V356C314.102 353.878 314.944 351.843 316.445 350.343C317.945 348.843 319.98 348 322.102 348C324.223 348 326.258 348.843 327.758 350.343C329.259 351.843 330.102 353.878 330.102 356V368C330.102 370.122 329.259 372.157 327.758 373.657C326.258 375.157 324.223 376 322.102 376Z" fill="url(#paint5_linear_72008_15119)" stroke="#0A5AD4" stroke-miterlimit="10"/>
<defs>
<linearGradient id="paint0_linear_72008_15119" x1="320.08" y1="181.62" x2="400.7" y2="321.27" gradientUnits="userSpaceOnUse">
<stop stop-color="#9CA3AF"/>
<stop offset="0.45" stop-color="#9CA3AF"/>
<stop offset="1" stop-color="#6B7280"/>
</linearGradient>
<linearGradient id="paint1_linear_72008_15119" x1="168" y1="175" x2="301.186" y2="405.685" gradientUnits="userSpaceOnUse">
<stop stop-color="#E5EFFF"/>
<stop offset="0.45" stop-color="#EBF2FF"/>
<stop offset="0.5" stop-color="#EAF2FF"/>
<stop offset="0.99" stop-color="#D9E9FF"/>
</linearGradient>
<linearGradient id="paint2_linear_72008_15119" x1="158.017" y1="343.43" x2="179.457" y2="380.57" gradientUnits="userSpaceOnUse">
<stop stop-color="#86C3DB"/>
<stop offset="0.45" stop-color="#86C3DB"/>
<stop offset="1" stop-color="#5EAFCF"/>
</linearGradient>
<linearGradient id="paint3_linear_72008_15119" x1="214.017" y1="343.43" x2="235.457" y2="380.57" gradientUnits="userSpaceOnUse">
<stop stop-color="#86C3DB"/>
<stop offset="0.45" stop-color="#86C3DB"/>
<stop offset="1" stop-color="#5EAFCF"/>
</linearGradient>
<linearGradient id="paint4_linear_72008_15119" x1="272.513" y1="350.578" x2="285.711" y2="373.435" gradientUnits="userSpaceOnUse">
<stop stop-color="#0B65ED"/>
<stop offset="0.45" stop-color="#0A5AD4"/>
<stop offset="1" stop-color="#0950BC"/>
</linearGradient>
<linearGradient id="paint5_linear_72008_15119" x1="315.512" y1="350.578" x2="328.71" y2="373.435" gradientUnits="userSpaceOnUse">
<stop stop-color="#0B65ED"/>
<stop offset="0.45" stop-color="#0A5AD4"/>
<stop offset="1" stop-color="#0950BC"/>
</linearGradient>
<clipPath id="clip0_72008_15119">
<rect width="398" height="222" fill="white" transform="translate(69.3398 145)"/>
</clipPath>
<clipPath id="clip1_72008_15119">
<rect width="200.26" height="126.12" fill="white" transform="translate(267.34 172)"/>
</clipPath>
</defs>
</svg>
