<svg width="512" height="512" viewBox="0 0 512 512" fill="none" xmlns="http://www.w3.org/2000/svg">
<g clip-path="url(#clip0_72008_15517)">
<g clip-path="url(#clip1_72008_15517)">
<path d="M154 247C176.091 247 194 229.091 194 207C194 184.909 176.091 167 154 167C131.909 167 114 184.909 114 207C114 229.091 131.909 247 154 247Z" fill="url(#paint0_linear_72008_15517)" stroke="#F8AF18" stroke-width="4" stroke-miterlimit="10"/>
<path d="M154 140.38V115M154 299V273.62M201.11 159.89L219.05 142M89 272.05L106.94 254.11M106.94 159.89L89 142M219.1 272.1L201.16 254.16M62 207H87.38M246 207H220.62" stroke="#FBBF24" stroke-width="12" stroke-miterlimit="10" stroke-linecap="round"/>
</g>
<g clip-path="url(#clip2_72008_15517)">
<g clip-path="url(#clip3_72008_15517)">
<path d="M267.34 265.18C267.34 273.783 270.758 282.035 276.841 288.118C279.854 291.131 283.43 293.52 287.366 295.15C291.301 296.781 295.52 297.62 299.78 297.62H429.53V297.5C430.3 297.5 431.06 297.62 431.84 297.62C440.493 297.622 448.836 294.395 455.236 288.571C461.636 282.747 465.633 274.744 466.444 266.129C467.256 257.514 464.824 248.906 459.624 241.989C454.425 235.072 446.831 230.344 438.33 228.73C439.335 222.644 438.58 216.397 436.155 210.726C433.73 205.054 429.736 200.193 424.641 196.714C419.547 193.236 413.566 191.285 407.4 191.091C401.235 190.897 395.143 192.468 389.84 195.62C383.796 185.674 374.383 178.229 363.313 174.638C352.244 171.048 340.253 171.55 329.522 176.054C318.791 180.558 310.034 188.765 304.844 199.181C299.653 209.597 298.374 221.53 301.24 232.81C300.75 232.81 300.24 232.74 299.78 232.74C295.52 232.74 291.301 233.579 287.366 235.209C283.43 236.839 279.854 239.229 276.841 242.241C270.758 248.325 267.34 256.576 267.34 265.18Z" fill="url(#paint1_linear_72008_15517)" stroke="#848B98" stroke-miterlimit="10"/>
</g>
<g clip-path="url(#clip4_72008_15517)">
<path d="M359.841 252C358.991 252 358.161 252.09 357.311 252.13C362.135 232.702 359.854 212.19 350.88 194.297C341.906 176.403 326.83 162.308 308.374 154.556C289.919 146.804 269.3 145.906 250.24 152.025C231.18 158.143 214.936 170.874 204.441 187.92C195.948 182.843 186.261 180.11 176.367 180.001C166.473 179.892 156.728 182.41 148.125 187.299C139.523 192.188 132.372 199.272 127.403 207.828C122.434 216.384 119.824 226.106 119.841 236C119.863 239.043 120.13 242.08 120.641 245.08C105.993 247.897 92.9197 256.069 83.9706 268.003C75.0216 279.936 70.8385 294.776 72.2371 309.626C73.6358 324.477 80.5159 338.274 91.5356 348.327C102.555 358.379 116.924 363.967 131.841 364C133.191 364 134.511 363.89 135.841 363.8V364H359.841C374.693 364 388.937 358.1 399.439 347.598C409.941 337.096 415.841 322.852 415.841 308C415.841 293.148 409.941 278.904 399.439 268.402C388.937 257.9 374.693 252 359.841 252Z" fill="url(#paint2_linear_72008_15517)" stroke="#5B6472" stroke-width="6" stroke-miterlimit="10"/>
</g>
</g>
</g>
<path d="M195.307 368.5L189.527 365.2C190.042 363.074 190.042 360.856 189.527 358.73L195.307 355.5C195.763 355.24 196.164 354.892 196.486 354.476C196.808 354.061 197.045 353.586 197.183 353.079C197.322 352.572 197.359 352.043 197.293 351.521C197.226 351 197.058 350.496 196.797 350.04C196.264 349.104 195.382 348.417 194.344 348.128C193.306 347.84 192.197 347.974 191.257 348.5L185.467 351.8C184.672 351.029 183.785 350.357 182.827 349.8C181.881 349.257 180.874 348.827 179.827 348.52V342C179.827 340.926 179.4 339.896 178.641 339.136C177.881 338.377 176.851 337.95 175.777 337.95C174.703 337.95 173.673 338.377 172.913 339.136C172.154 339.896 171.727 340.926 171.727 342V348.6C169.605 349.221 167.657 350.327 166.037 351.83L160.217 348.5C159.752 348.232 159.239 348.057 158.707 347.987C158.175 347.917 157.634 347.953 157.116 348.092C156.597 348.232 156.111 348.472 155.686 348.799C155.261 349.127 154.904 349.535 154.637 350C154.371 350.461 154.2 350.969 154.133 351.497C154.066 352.024 154.105 352.559 154.248 353.071C154.39 353.583 154.633 354.062 154.963 354.479C155.292 354.896 155.702 355.243 156.167 355.5L161.947 358.8C161.432 360.926 161.432 363.144 161.947 365.27L156.167 368.5C155.702 368.757 155.292 369.104 154.963 369.522C154.633 369.939 154.39 370.417 154.248 370.929C154.105 371.441 154.066 371.977 154.133 372.504C154.2 373.031 154.371 373.54 154.637 374C154.999 374.611 155.514 375.117 156.131 375.468C156.749 375.818 157.447 376.002 158.157 376C158.859 375.999 159.549 375.813 160.157 375.46L165.947 372.16C166.742 372.932 167.629 373.603 168.587 374.16C169.533 374.7 170.54 375.127 171.587 375.43V382C171.587 383.074 172.014 384.104 172.773 384.864C173.533 385.623 174.563 386.05 175.637 386.05C176.711 386.05 177.741 385.623 178.501 384.864C179.26 384.104 179.687 383.074 179.687 382V375.39C181.805 374.769 183.75 373.663 185.367 372.16L191.257 375.5C191.865 375.853 192.554 376.039 193.257 376.04C193.967 376.042 194.665 375.858 195.282 375.508C195.9 375.157 196.415 374.651 196.777 374.04C197.051 373.582 197.231 373.073 197.306 372.544C197.38 372.015 197.348 371.476 197.211 370.96C197.074 370.444 196.835 369.96 196.508 369.537C196.181 369.115 195.772 368.762 195.307 368.5ZM172.697 367.2C172.012 366.808 171.411 366.285 170.929 365.66C170.446 365.036 170.092 364.322 169.886 363.561C169.68 362.799 169.626 362.004 169.727 361.222C169.829 360.439 170.083 359.684 170.477 359C171.017 358.084 171.788 357.325 172.713 356.799C173.637 356.273 174.683 355.997 175.747 356C176.799 356.006 177.832 356.282 178.747 356.8C179.432 357.192 180.033 357.715 180.515 358.34C180.997 358.964 181.352 359.678 181.558 360.44C181.764 361.201 181.818 361.996 181.717 362.779C181.615 363.561 181.36 364.316 180.967 365C180.149 366.375 178.826 367.375 177.28 367.786C175.735 368.197 174.089 367.987 172.697 367.2Z" fill="url(#paint3_linear_72008_15517)" stroke="#86C3DB" stroke-miterlimit="10"/>
<path d="M251.307 368.5L245.527 365.2C246.042 363.074 246.042 360.856 245.527 358.73L251.307 355.5C251.763 355.24 252.164 354.892 252.486 354.476C252.808 354.061 253.045 353.586 253.183 353.079C253.322 352.572 253.359 352.043 253.293 351.521C253.226 351 253.058 350.496 252.797 350.04C252.264 349.104 251.382 348.417 250.344 348.128C249.306 347.84 248.197 347.974 247.257 348.5L241.467 351.8C240.672 351.029 239.785 350.357 238.827 349.8C237.881 349.257 236.874 348.827 235.827 348.52V342C235.827 340.926 235.4 339.896 234.641 339.136C233.881 338.377 232.851 337.95 231.777 337.95C230.703 337.95 229.673 338.377 228.913 339.136C228.154 339.896 227.727 340.926 227.727 342V348.6C225.605 349.221 223.657 350.327 222.037 351.83L216.217 348.5C215.752 348.232 215.239 348.057 214.707 347.987C214.175 347.917 213.634 347.953 213.116 348.092C212.597 348.232 212.111 348.472 211.686 348.799C211.261 349.127 210.904 349.535 210.637 350C210.371 350.461 210.2 350.969 210.133 351.497C210.066 352.024 210.105 352.559 210.248 353.071C210.39 353.583 210.633 354.062 210.963 354.479C211.292 354.896 211.702 355.243 212.167 355.5L217.947 358.8C217.432 360.926 217.432 363.144 217.947 365.27L212.167 368.5C211.702 368.757 211.292 369.104 210.963 369.522C210.633 369.939 210.39 370.417 210.248 370.929C210.105 371.441 210.066 371.977 210.133 372.504C210.2 373.031 210.371 373.54 210.637 374C210.999 374.611 211.514 375.117 212.131 375.468C212.749 375.818 213.447 376.002 214.157 376C214.859 375.999 215.549 375.813 216.157 375.46L221.947 372.16C222.742 372.932 223.629 373.603 224.587 374.16C225.533 374.7 226.54 375.127 227.587 375.43V382C227.587 383.074 228.014 384.104 228.773 384.864C229.533 385.623 230.563 386.05 231.637 386.05C232.711 386.05 233.741 385.623 234.501 384.864C235.26 384.104 235.687 383.074 235.687 382V375.39C237.805 374.769 239.75 373.663 241.367 372.16L247.257 375.5C247.865 375.853 248.554 376.039 249.257 376.04C249.967 376.042 250.665 375.858 251.282 375.508C251.9 375.157 252.415 374.651 252.777 374.04C253.051 373.582 253.231 373.073 253.306 372.544C253.38 372.015 253.348 371.476 253.211 370.96C253.074 370.444 252.835 369.96 252.508 369.537C252.181 369.115 251.772 368.762 251.307 368.5ZM228.697 367.2C228.012 366.808 227.411 366.285 226.929 365.66C226.446 365.036 226.092 364.322 225.886 363.561C225.68 362.799 225.626 362.004 225.727 361.222C225.828 360.439 226.083 359.684 226.477 359C227.017 358.084 227.788 357.325 228.713 356.799C229.637 356.273 230.683 355.997 231.747 356C232.799 356.006 233.832 356.282 234.747 356.8C235.432 357.192 236.033 357.715 236.515 358.34C236.997 358.964 237.352 359.678 237.558 360.44C237.764 361.201 237.818 361.996 237.717 362.779C237.615 363.561 237.36 364.316 236.967 365C236.149 366.375 234.826 367.375 233.28 367.786C231.735 368.197 230.089 367.987 228.697 367.2Z" fill="url(#paint4_linear_72008_15517)" stroke="#86C3DB" stroke-miterlimit="10"/>
<path d="M286.102 376C283.98 376 281.945 375.157 280.445 373.657C278.944 372.157 278.102 370.122 278.102 368V356C278.102 353.878 278.944 351.843 280.445 350.343C281.945 348.843 283.98 348 286.102 348C288.223 348 290.258 348.843 291.758 350.343C293.259 351.843 294.102 353.878 294.102 356V368C294.102 370.122 293.259 372.157 291.758 373.657C290.258 375.157 288.223 376 286.102 376Z" fill="url(#paint5_linear_72008_15517)" stroke="#0A5AD4" stroke-miterlimit="10"/>
<path d="M329.102 376C326.98 376 324.945 375.157 323.445 373.657C321.944 372.157 321.102 370.122 321.102 368V356C321.102 353.878 321.944 351.843 323.445 350.343C324.945 348.843 326.98 348 329.102 348C331.223 348 333.258 348.843 334.758 350.343C336.259 351.843 337.102 353.878 337.102 356V368C337.102 370.122 336.259 372.157 334.758 373.657C333.258 375.157 331.223 376 329.102 376Z" fill="url(#paint6_linear_72008_15517)" stroke="#0A5AD4" stroke-miterlimit="10"/>
<defs>
<linearGradient id="paint0_linear_72008_15517" x1="134" y1="172.35" x2="174" y2="241.65" gradientUnits="userSpaceOnUse">
<stop stop-color="#FBBF24"/>
<stop offset="0.45" stop-color="#FBBF24"/>
<stop offset="1" stop-color="#F59E0B"/>
</linearGradient>
<linearGradient id="paint1_linear_72008_15517" x1="319.58" y1="181.62" x2="400.2" y2="321.27" gradientUnits="userSpaceOnUse">
<stop stop-color="#9CA3AF"/>
<stop offset="0.45" stop-color="#9CA3AF"/>
<stop offset="1" stop-color="#6B7280"/>
</linearGradient>
<linearGradient id="paint2_linear_72008_15517" x1="168.291" y1="175.68" x2="301.481" y2="406.37" gradientUnits="userSpaceOnUse">
<stop stop-color="#6B7280"/>
<stop offset="0.45" stop-color="#6B7280"/>
<stop offset="1" stop-color="#4B5563"/>
</linearGradient>
<linearGradient id="paint3_linear_72008_15517" x1="165.017" y1="343.43" x2="186.457" y2="380.57" gradientUnits="userSpaceOnUse">
<stop stop-color="#86C3DB"/>
<stop offset="0.45" stop-color="#86C3DB"/>
<stop offset="1" stop-color="#5EAFCF"/>
</linearGradient>
<linearGradient id="paint4_linear_72008_15517" x1="221.017" y1="343.43" x2="242.457" y2="380.57" gradientUnits="userSpaceOnUse">
<stop stop-color="#86C3DB"/>
<stop offset="0.45" stop-color="#86C3DB"/>
<stop offset="1" stop-color="#5EAFCF"/>
</linearGradient>
<linearGradient id="paint5_linear_72008_15517" x1="279.513" y1="350.578" x2="292.711" y2="373.435" gradientUnits="userSpaceOnUse">
<stop stop-color="#0B65ED"/>
<stop offset="0.45" stop-color="#0A5AD4"/>
<stop offset="1" stop-color="#0950BC"/>
</linearGradient>
<linearGradient id="paint6_linear_72008_15517" x1="322.512" y1="350.578" x2="335.71" y2="373.435" gradientUnits="userSpaceOnUse">
<stop stop-color="#0B65ED"/>
<stop offset="0.45" stop-color="#0A5AD4"/>
<stop offset="1" stop-color="#0950BC"/>
</linearGradient>
<clipPath id="clip0_72008_15517">
<rect width="410.84" height="258" fill="white" transform="translate(56 109)"/>
</clipPath>
<clipPath id="clip1_72008_15517">
<rect width="196" height="196" fill="white" transform="translate(56 109)"/>
</clipPath>
<clipPath id="clip2_72008_15517">
<rect width="398" height="222" fill="white" transform="translate(68.8398 145)"/>
</clipPath>
<clipPath id="clip3_72008_15517">
<rect width="200.26" height="126.12" fill="white" transform="translate(266.84 172)"/>
</clipPath>
<clipPath id="clip4_72008_15517">
<rect width="350" height="222" fill="white" transform="translate(68.8398 145)"/>
</clipPath>
</defs>
</svg>
