<svg width="512" height="512" viewBox="0 0 512 512" fill="none" xmlns="http://www.w3.org/2000/svg">
<g clip-path="url(#clip0_72008_14892)">
<mask id="mask0_72008_14892" style="mask-type:luminance" maskUnits="userSpaceOnUse" x="0" y="0" width="512" height="512">
<path d="M512 0H0V512H512V0Z" fill="white"/>
</mask>
<g mask="url(#mask0_72008_14892)">
<path d="M253.887 236.562C253.887 254.477 268.41 269 286.325 269H416.075V268.883C416.844 268.934 417.61 269 418.392 269C437.586 269 453.146 253.439 453.146 234.245C453.146 217.27 440.97 203.159 424.879 200.118C425.16 198.402 425.343 196.653 425.343 194.857C425.343 176.942 410.82 162.419 392.905 162.419C386.845 162.419 381.194 164.111 376.341 167.004C367.766 153.146 352.474 143.884 334.981 143.884C308.109 143.884 286.325 165.668 286.325 192.54C286.325 196.566 286.868 200.457 287.79 204.199C287.301 204.177 286.82 204.125 286.325 204.125C268.41 204.125 253.887 218.647 253.887 236.562Z" fill="url(#paint0_linear_72008_14892)"/>
<path d="M253.887 236.562C253.887 254.477 268.41 269 286.325 269H416.075V268.883C416.844 268.934 417.61 269 418.392 269C437.586 269 453.146 253.439 453.146 234.245C453.146 217.27 440.97 203.159 424.879 200.118C425.16 198.402 425.343 196.653 425.343 194.857C425.343 176.942 410.82 162.419 392.905 162.419C386.845 162.419 381.194 164.111 376.341 167.004C367.766 153.146 352.474 143.884 334.981 143.884C308.109 143.884 286.325 165.668 286.325 192.54C286.325 196.566 286.868 200.457 287.79 204.199C287.301 204.177 286.82 204.125 286.325 204.125C268.41 204.125 253.887 218.647 253.887 236.562Z" stroke="#838B98" stroke-miterlimit="10"/>
<path d="M347 224C346.146 224 345.315 224.089 344.471 224.127C346.063 217.668 347 210.951 347 204C347 157.608 309.392 120 263 120C232.799 120 206.399 135.991 191.596 159.915C183.218 154.921 173.461 152 163 152C132.072 152 107 177.072 107 208C107 211.1 107.317 214.12 107.801 217.083C80.022 222.333 59 246.694 59 276C59 309.137 85.863 336 119 336C120.351 336 121.672 335.886 123 335.798V336H347C377.928 336 403 310.928 403 280C403 249.072 377.928 224 347 224Z" fill="url(#paint1_linear_72008_14892)"/>
<path d="M347 224C346.146 224 345.315 224.089 344.471 224.127C346.063 217.668 347 210.951 347 204C347 157.608 309.392 120 263 120C232.799 120 206.399 135.991 191.596 159.915C183.218 154.921 173.461 152 163 152C132.072 152 107 177.072 107 208C107 211.1 107.317 214.12 107.801 217.083C80.022 222.333 59 246.694 59 276C59 309.137 85.863 336 119 336C120.351 336 121.672 335.886 123 335.798V336H347C377.928 336 403 310.928 403 280C403 249.072 377.928 224 347 224Z" stroke="#D0D9E7" stroke-width="6" stroke-miterlimit="10"/>
<g clip-path="url(#clip1_72008_14892)">
<path d="M174.648 391C172.527 391 170.492 390.157 168.992 388.657C167.491 387.157 166.648 385.122 166.648 383V343C166.648 340.878 167.491 338.843 168.992 337.343C170.492 335.843 172.527 335 174.648 335C176.77 335 178.805 335.843 180.305 337.343C181.806 338.843 182.648 340.878 182.648 343V383C182.648 385.122 181.806 387.157 180.305 388.657C178.805 390.157 176.77 391 174.648 391Z" fill="url(#paint2_linear_72008_14892)" stroke="#0A5AD4" stroke-miterlimit="10"/>
<path d="M230.648 391C228.527 391 226.492 390.157 224.992 388.657C223.491 387.157 222.648 385.122 222.648 383V343C222.648 340.878 223.491 338.843 224.992 337.343C226.492 335.843 228.527 335 230.648 335C232.77 335 234.805 335.843 236.305 337.343C237.806 338.843 238.648 340.878 238.648 343V383C238.648 385.122 237.806 387.157 236.305 388.657C234.805 390.157 232.77 391 230.648 391Z" fill="url(#paint3_linear_72008_14892)" stroke="#0A5AD4" stroke-miterlimit="10"/>
<path d="M286.648 391C284.527 391 282.492 390.157 280.992 388.657C279.491 387.157 278.648 385.122 278.648 383V343C278.648 340.878 279.491 338.843 280.992 337.343C282.492 335.843 284.527 335 286.648 335C288.77 335 290.805 335.843 292.305 337.343C293.806 338.843 294.648 340.878 294.648 343V383C294.648 385.122 293.806 387.157 292.305 388.657C290.805 390.157 288.77 391 286.648 391Z" fill="url(#paint4_linear_72008_14892)" stroke="#0A5AD4" stroke-miterlimit="10"/>
</g>
</g>
</g>
<defs>
<linearGradient id="paint0_linear_72008_14892" x1="306.075" y1="153" x2="386.699" y2="292.645" gradientUnits="userSpaceOnUse">
<stop stop-color="#9CA3AF"/>
<stop offset="0.22" stop-color="#9CA3AF"/>
<stop offset="0.45" stop-color="#9CA3AF"/>
<stop offset="0.73" stop-color="#848A97"/>
<stop offset="1" stop-color="#6B7280"/>
</linearGradient>
<linearGradient id="paint1_linear_72008_14892" x1="155" y1="147" x2="288.186" y2="377.685" gradientUnits="userSpaceOnUse">
<stop stop-color="#E5EFFF"/>
<stop offset="0.45" stop-color="#EBF2FF"/>
<stop offset="0.5" stop-color="#EAF2FF"/>
<stop offset="0.99" stop-color="#D9E9FF"/>
</linearGradient>
<linearGradient id="paint2_linear_72008_14892" x1="161.986" y1="341.077" x2="187.309" y2="384.935" gradientUnits="userSpaceOnUse">
<stop stop-color="#0B65ED"/>
<stop offset="0.45" stop-color="#0A5AD4"/>
<stop offset="1" stop-color="#0950BC"/>
</linearGradient>
<linearGradient id="paint3_linear_72008_14892" x1="217.984" y1="341.077" x2="243.307" y2="384.936" gradientUnits="userSpaceOnUse">
<stop stop-color="#0B65ED"/>
<stop offset="0.45" stop-color="#0A5AD4"/>
<stop offset="1" stop-color="#0950BC"/>
</linearGradient>
<linearGradient id="paint4_linear_72008_14892" x1="273.99" y1="341.075" x2="299.313" y2="384.934" gradientUnits="userSpaceOnUse">
<stop stop-color="#0B65ED"/>
<stop offset="0.45" stop-color="#0A5AD4"/>
<stop offset="1" stop-color="#0950BC"/>
</linearGradient>
<clipPath id="clip0_72008_14892">
<rect width="512" height="512" fill="white"/>
</clipPath>
<clipPath id="clip1_72008_14892">
<rect width="129" height="57" fill="white" transform="translate(166.148 334.5)"/>
</clipPath>
</defs>
</svg>
