<svg width="512" height="512" viewBox="0 0 512 512" fill="none" xmlns="http://www.w3.org/2000/svg">
<g clip-path="url(#clip0_72008_14817)">
<mask id="mask0_72008_14817" style="mask-type:luminance" maskUnits="userSpaceOnUse" x="0" y="0" width="512" height="512">
<path d="M512 0H0V512H512V0Z" fill="white"/>
</mask>
<g mask="url(#mask0_72008_14817)">
<path d="M405.616 298.914C311.034 298.914 234.36 223.264 234.36 129.947C234.36 115.284 236.451 101.136 240.01 87.5691C154.291 96.8207 87.5703 168.428 87.5703 255.464C87.5703 348.781 164.244 424.431 258.826 424.431C338.546 424.431 405.345 370.611 424.432 297.845C418.246 298.513 411.982 298.914 405.616 298.914Z" fill="url(#paint0_linear_72008_14817)"/>
<path d="M405.616 298.914C311.034 298.914 234.36 223.264 234.36 129.947C234.36 115.284 236.451 101.136 240.01 87.5691C154.291 96.8207 87.5703 168.428 87.5703 255.464C87.5703 348.781 164.244 424.431 258.826 424.431C338.546 424.431 405.345 370.611 424.432 297.845C418.246 298.513 411.982 298.914 405.616 298.914Z" stroke="#72B9D5" stroke-width="8.02051" stroke-linecap="round" stroke-linejoin="round"/>
<path d="M408.494 335.674C407.975 335.674 407.47 335.728 406.957 335.751C407.924 331.826 408.494 327.744 408.494 323.519C408.494 295.326 385.638 272.47 357.445 272.47C339.091 272.47 323.047 282.189 314.051 296.728C308.959 293.693 303.03 291.918 296.672 291.918C277.877 291.918 262.64 307.155 262.64 325.95C262.64 327.834 262.832 329.67 263.126 331.47C246.244 334.661 233.469 349.466 233.469 367.276C233.469 387.414 249.794 403.739 269.932 403.739C270.753 403.739 271.556 403.67 272.363 403.617V403.739H408.494C427.29 403.739 442.526 388.502 442.526 369.707C442.526 350.911 427.29 335.674 408.494 335.674Z" fill="url(#paint1_linear_72008_14817)"/>
<path d="M408.494 335.674C407.975 335.674 407.47 335.728 406.957 335.751C407.924 331.826 408.494 327.744 408.494 323.519C408.494 295.326 385.638 272.47 357.445 272.47C339.091 272.47 323.047 282.189 314.051 296.728C308.959 293.693 303.03 291.918 296.672 291.918C277.877 291.918 262.64 307.155 262.64 325.95C262.64 327.834 262.832 329.67 263.126 331.47C246.244 334.661 233.469 349.466 233.469 367.276C233.469 387.414 249.794 403.739 269.932 403.739C270.753 403.739 271.556 403.67 272.363 403.617V403.739H408.494C427.29 403.739 442.526 388.502 442.526 369.707C442.526 350.911 427.29 335.674 408.494 335.674Z" stroke="#E6EFFB" stroke-width="3.64636" stroke-miterlimit="10"/>
</g>
</g>
<defs>
<linearGradient id="paint0_linear_72008_14817" x1="151.734" y1="119.651" x2="321.25" y2="413.26" gradientUnits="userSpaceOnUse">
<stop stop-color="#86C3DB"/>
<stop offset="0.22" stop-color="#86C3DB"/>
<stop offset="0.45" stop-color="#86C3DB"/>
<stop offset="0.73" stop-color="#72B9D5"/>
<stop offset="1" stop-color="#5EAFCF"/>
</linearGradient>
<linearGradient id="paint1_linear_72008_14817" x1="291.81" y1="288.879" x2="372.751" y2="429.072" gradientUnits="userSpaceOnUse">
<stop stop-color="#F3F7FE"/>
<stop offset="0.22" stop-color="#F3F7FE"/>
<stop offset="0.45" stop-color="#F3F7FE"/>
<stop offset="0.73" stop-color="#E9F0FC"/>
<stop offset="1" stop-color="#DEEAFB"/>
</linearGradient>
<clipPath id="clip0_72008_14817">
<rect width="512" height="512" fill="white"/>
</clipPath>
</defs>
</svg>
