<svg width="512" height="512" viewBox="0 0 512 512" fill="none" xmlns="http://www.w3.org/2000/svg">
<g clip-path="url(#clip0_72008_14936)">
<g clip-path="url(#clip1_72008_14936)">
<path d="M267.34 265.18C267.34 273.784 270.758 282.035 276.841 288.119C279.854 291.131 283.43 293.521 287.366 295.151C291.301 296.781 295.52 297.62 299.78 297.62H429.53V297.5C430.3 297.5 431.06 297.62 431.84 297.62C440.493 297.622 448.836 294.395 455.236 288.571C461.636 282.747 465.633 274.745 466.444 266.13C467.256 257.514 464.824 248.906 459.624 241.99C454.425 235.073 446.831 230.345 438.33 228.73C439.335 222.644 438.58 216.398 436.155 210.726C433.73 205.054 429.736 200.193 424.641 196.715C419.547 193.237 413.566 191.286 407.4 191.092C401.235 190.898 395.143 192.469 389.84 195.62C383.796 185.675 374.383 178.23 363.313 174.639C352.244 171.048 340.253 171.55 329.522 176.055C318.791 180.559 310.034 188.766 304.844 199.182C299.653 209.598 298.374 221.531 301.24 232.81C300.75 232.81 300.24 232.74 299.78 232.74C295.52 232.74 291.301 233.579 287.366 235.21C283.43 236.84 279.854 239.229 276.841 242.242C270.758 248.325 267.34 256.577 267.34 265.18Z" fill="url(#paint0_linear_72008_14936)" stroke="#848B98" stroke-miterlimit="10"/>
</g>
<path d="M360 252C359.146 252 358.315 252.089 357.471 252.127C359.063 245.668 360 238.951 360 232C360 185.608 322.392 148 276 148C245.799 148 219.399 163.991 204.596 187.915C196.218 182.921 186.461 180 176 180C145.072 180 120 205.072 120 236C120 239.1 120.317 242.12 120.801 245.083C93.022 250.333 72 274.694 72 304C72 337.137 98.863 364 132 364C133.351 364 134.672 363.886 136 363.798V364H360C390.928 364 416 338.928 416 308C416 277.072 390.928 252 360 252Z" fill="url(#paint1_linear_72008_14936)"/>
<path d="M360 252C359.146 252 358.315 252.089 357.471 252.127C359.063 245.668 360 238.951 360 232C360 185.608 322.392 148 276 148C245.799 148 219.399 163.991 204.596 187.915C196.218 182.921 186.461 180 176 180C145.072 180 120 205.072 120 236C120 239.1 120.317 242.12 120.801 245.083C93.022 250.333 72 274.694 72 304C72 337.137 98.863 364 132 364C133.351 364 134.672 363.886 136 363.798V364H360C390.928 364 416 338.928 416 308C416 277.072 390.928 252 360 252Z" stroke="#D0D9E7" stroke-width="6" stroke-miterlimit="10"/>
</g>
<g clip-path="url(#clip2_72008_14936)">
<path d="M200 400C197.878 400 195.843 399.157 194.343 397.657C192.843 396.157 192 394.122 192 392V352C192 349.878 192.843 347.843 194.343 346.343C195.843 344.843 197.878 344 200 344C202.122 344 204.157 344.843 205.657 346.343C207.157 347.843 208 349.878 208 352V392C208 394.122 207.157 396.157 205.657 397.657C204.157 399.157 202.122 400 200 400Z" fill="url(#paint2_linear_72008_14936)" stroke="#0A5AD4" stroke-miterlimit="10"/>
<path d="M256 400C253.878 400 251.843 399.157 250.343 397.657C248.843 396.157 248 394.122 248 392V352C248 349.878 248.843 347.843 250.343 346.343C251.843 344.843 253.878 344 256 344C258.122 344 260.157 344.843 261.657 346.343C263.157 347.843 264 349.878 264 352V392C264 394.122 263.157 396.157 261.657 397.657C260.157 399.157 258.122 400 256 400Z" fill="url(#paint3_linear_72008_14936)" stroke="#0A5AD4" stroke-miterlimit="10"/>
<path d="M312 400C309.878 400 307.843 399.157 306.343 397.657C304.843 396.157 304 394.122 304 392V352C304 349.878 304.843 347.843 306.343 346.343C307.843 344.843 309.878 344 312 344C314.122 344 316.157 344.843 317.657 346.343C319.157 347.843 320 349.878 320 352V392C320 394.122 319.157 396.157 317.657 397.657C316.157 399.157 314.122 400 312 400Z" fill="url(#paint4_linear_72008_14936)" stroke="#0A5AD4" stroke-miterlimit="10"/>
</g>
<g clip-path="url(#clip3_72008_14936)">
<path d="M240 293L208 389H240L224 469L304.01 357H256L288.01 293H240Z" fill="url(#paint5_linear_72008_14936)" stroke="#F6A823" stroke-width="4" stroke-miterlimit="10"/>
</g>
<defs>
<linearGradient id="paint0_linear_72008_14936" x1="319.58" y1="181.62" x2="400.2" y2="321.27" gradientUnits="userSpaceOnUse">
<stop stop-color="#9CA3AF"/>
<stop offset="0.45" stop-color="#9CA3AF"/>
<stop offset="1" stop-color="#6B7280"/>
</linearGradient>
<linearGradient id="paint1_linear_72008_14936" x1="168" y1="175" x2="301.186" y2="405.685" gradientUnits="userSpaceOnUse">
<stop stop-color="#E5EFFF"/>
<stop offset="0.45" stop-color="#EBF2FF"/>
<stop offset="0.5" stop-color="#EAF2FF"/>
<stop offset="0.99" stop-color="#D9E9FF"/>
</linearGradient>
<linearGradient id="paint2_linear_72008_14936" x1="187.338" y1="350.077" x2="212.661" y2="393.935" gradientUnits="userSpaceOnUse">
<stop stop-color="#0B65ED"/>
<stop offset="0.45" stop-color="#0A5AD4"/>
<stop offset="1" stop-color="#0950BC"/>
</linearGradient>
<linearGradient id="paint3_linear_72008_14936" x1="243.336" y1="350.077" x2="268.658" y2="393.936" gradientUnits="userSpaceOnUse">
<stop stop-color="#0B65ED"/>
<stop offset="0.45" stop-color="#0A5AD4"/>
<stop offset="1" stop-color="#0950BC"/>
</linearGradient>
<linearGradient id="paint4_linear_72008_14936" x1="299.342" y1="350.075" x2="324.665" y2="393.934" gradientUnits="userSpaceOnUse">
<stop stop-color="#0B65ED"/>
<stop offset="0.45" stop-color="#0A5AD4"/>
<stop offset="1" stop-color="#0950BC"/>
</linearGradient>
<linearGradient id="paint5_linear_72008_14936" x1="213.9" y1="308.07" x2="286.11" y2="433.14" gradientUnits="userSpaceOnUse">
<stop stop-color="#F7B23B"/>
<stop offset="0.45" stop-color="#F7B23B"/>
<stop offset="1" stop-color="#F59E0B"/>
</linearGradient>
<clipPath id="clip0_72008_14936">
<rect width="398" height="222" fill="white" transform="translate(68.8398 145)"/>
</clipPath>
<clipPath id="clip1_72008_14936">
<rect width="200.26" height="126.12" fill="white" transform="translate(266.84 172)"/>
</clipPath>
<clipPath id="clip2_72008_14936">
<rect width="129" height="57" fill="white" transform="translate(191.5 343.5)"/>
</clipPath>
<clipPath id="clip3_72008_14936">
<rect width="102.66" height="186.75" fill="white" transform="translate(205.23 291)"/>
</clipPath>
</defs>
</svg>
