<svg width="513" height="512" viewBox="0 0 513 512" fill="none" xmlns="http://www.w3.org/2000/svg">
<g clip-path="url(#clip0_72008_15456)">
<g clip-path="url(#clip1_72008_15456)">
<path d="M267.84 265.2C267.84 273.793 271.253 282.034 277.33 288.11C283.406 294.187 291.647 297.6 300.24 297.6H430.04V297.5L432.34 297.6C440.928 297.494 449.174 294.215 455.491 288.394C461.807 282.574 465.748 274.623 466.554 266.071C467.361 257.52 464.977 248.973 459.86 242.073C454.744 235.174 447.257 230.411 438.84 228.7C439.812 222.623 439.034 216.395 436.596 210.745C434.158 205.094 430.161 200.254 425.073 196.793C419.985 193.331 414.017 191.389 407.865 191.196C401.714 191.002 395.635 192.565 390.34 195.7C384.274 185.813 374.872 178.421 363.832 174.86C352.792 171.299 340.842 171.805 330.143 176.285C319.443 180.766 310.698 188.925 305.489 199.29C300.28 209.655 298.95 221.541 301.74 232.8H300.24C291.664 232.8 283.438 236.2 277.365 242.255C271.292 248.309 267.866 256.525 267.84 265.1V265.2Z" fill="url(#paint0_linear_72008_15456)" stroke="#848B98" stroke-miterlimit="10"/>
</g>
<g clip-path="url(#clip2_72008_15456)">
<path d="M360.338 252L357.838 252.1C362.636 232.674 360.334 212.173 351.346 194.296C342.358 176.419 327.277 162.343 308.824 154.606C290.371 146.87 269.76 145.984 250.711 152.107C231.661 158.23 215.428 170.96 204.938 188C196.447 182.956 186.772 180.247 176.896 180.148C167.02 180.05 157.294 182.565 148.703 187.439C140.113 192.313 132.965 199.372 127.983 207.901C123.001 216.429 120.364 226.123 120.338 236C120.365 239.016 120.632 242.026 121.138 245C106.397 247.724 93.2103 255.868 84.1728 267.828C75.1354 279.788 70.9024 294.698 72.3071 309.623C73.7118 324.547 80.6524 338.406 91.7626 348.469C102.873 358.533 117.348 364.073 132.338 364L136.338 363.8V364H360.338C375.19 364 389.434 358.1 399.936 347.598C410.438 337.096 416.338 322.852 416.338 308C416.338 293.148 410.438 278.904 399.936 268.402C389.434 257.9 375.19 252 360.338 252Z" fill="url(#paint1_linear_72008_15456)" stroke="#5B6472" stroke-width="6" stroke-miterlimit="10"/>
</g>
</g>
<g clip-path="url(#clip3_72008_15456)">
<path d="M220.098 368.5L214.298 365.2C214.82 363.065 214.82 360.835 214.298 358.7L220.098 355.5C220.561 355.241 220.967 354.892 221.294 354.473C221.62 354.055 221.86 353.576 222 353.064C222.139 352.552 222.176 352.018 222.107 351.492C222.038 350.966 221.865 350.459 221.598 350C221.339 349.524 220.985 349.105 220.559 348.77C220.133 348.435 219.644 348.189 219.12 348.049C218.596 347.909 218.049 347.876 217.513 347.954C216.976 348.031 216.461 348.217 215.998 348.5L210.198 351.8C209.415 351.031 208.542 350.36 207.598 349.8C206.653 349.25 205.646 348.813 204.598 348.5V342C204.598 340.926 204.171 339.896 203.412 339.136C202.652 338.377 201.622 337.95 200.548 337.95C199.474 337.95 198.444 338.377 197.684 339.136C196.925 339.896 196.498 340.926 196.498 342V348.6C194.377 349.212 192.426 350.308 190.798 351.8L184.998 348.5C184.536 348.217 184.02 348.031 183.484 347.954C182.947 347.876 182.4 347.909 181.876 348.049C181.353 348.189 180.863 348.435 180.437 348.77C180.011 349.105 179.657 349.524 179.398 350C179.131 350.459 178.958 350.966 178.889 351.492C178.82 352.018 178.857 352.552 178.996 353.064C179.136 353.576 179.376 354.055 179.703 354.473C180.029 354.892 180.435 355.241 180.898 355.5L186.698 358.8C186.177 360.935 186.177 363.165 186.698 365.3L180.898 368.5C180.435 368.76 180.029 369.109 179.703 369.527C179.376 369.945 179.136 370.424 178.996 370.936C178.857 371.448 178.82 371.982 178.889 372.509C178.958 373.035 179.131 373.542 179.398 374C179.752 374.614 180.263 375.122 180.878 375.473C181.493 375.825 182.19 376.007 182.898 376C183.597 376.011 184.287 375.839 184.898 375.5L190.698 372.2C191.481 372.969 192.354 373.641 193.298 374.2C194.248 374.716 195.255 375.119 196.298 375.4V382C196.298 383.088 196.73 384.13 197.499 384.899C198.268 385.668 199.311 386.1 200.398 386.1C201.485 386.1 202.528 385.668 203.297 384.899C204.066 384.13 204.498 383.088 204.498 382V375.4C206.586 374.777 208.502 373.682 210.098 372.2L216.098 375.5C216.71 375.839 217.399 376.011 218.098 376C218.789 375.989 219.466 375.799 220.062 375.448C220.658 375.098 221.153 374.599 221.498 374C221.769 373.548 221.948 373.046 222.024 372.524C222.1 372.002 222.073 371.47 221.942 370.959C221.812 370.448 221.582 369.967 221.266 369.545C220.949 369.123 220.552 368.768 220.098 368.5ZM197.398 367.2C196.707 366.815 196.098 366.297 195.608 365.675C195.117 365.054 194.755 364.341 194.541 363.579C194.327 362.817 194.266 362.02 194.362 361.234C194.458 360.448 194.708 359.689 195.098 359C195.641 358.08 196.417 357.318 197.347 356.791C198.277 356.265 199.329 355.992 200.398 356C201.45 356.008 202.482 356.283 203.398 356.8C204.081 357.194 204.68 357.718 205.161 358.344C205.641 358.969 205.993 359.683 206.198 360.444C206.402 361.206 206.454 362 206.351 362.782C206.248 363.564 205.993 364.317 205.598 365C204.785 366.36 203.474 367.35 201.944 367.761C200.413 368.171 198.783 367.97 197.398 367.2Z" fill="url(#paint2_linear_72008_15456)" stroke="#86C3DB" stroke-miterlimit="10"/>
<path d="M276.098 368.5L270.298 365.2C270.82 363.065 270.82 360.835 270.298 358.7L276.098 355.5C276.561 355.241 276.967 354.892 277.294 354.473C277.62 354.055 277.86 353.576 278 353.064C278.139 352.552 278.176 352.018 278.107 351.492C278.038 350.966 277.865 350.459 277.598 350C277.339 349.524 276.985 349.105 276.559 348.77C276.133 348.435 275.644 348.189 275.12 348.049C274.596 347.909 274.049 347.876 273.513 347.954C272.976 348.031 272.461 348.217 271.998 348.5L266.198 351.8C265.415 351.031 264.542 350.36 263.598 349.8C262.653 349.25 261.646 348.813 260.598 348.5V342C260.598 340.926 260.171 339.896 259.412 339.136C258.652 338.377 257.622 337.95 256.548 337.95C255.474 337.95 254.444 338.377 253.684 339.136C252.925 339.896 252.498 340.926 252.498 342V348.6C250.377 349.212 248.426 350.308 246.798 351.8L240.998 348.5C240.536 348.217 240.02 348.031 239.484 347.954C238.947 347.876 238.4 347.909 237.876 348.049C237.353 348.189 236.863 348.435 236.437 348.77C236.011 349.105 235.657 349.524 235.398 350C235.131 350.459 234.958 350.966 234.889 351.492C234.82 352.018 234.857 352.552 234.996 353.064C235.136 353.576 235.376 354.055 235.703 354.473C236.029 354.892 236.435 355.241 236.898 355.5L242.698 358.8C242.177 360.935 242.177 363.165 242.698 365.3L236.898 368.5C236.435 368.76 236.029 369.109 235.703 369.527C235.376 369.945 235.136 370.424 234.996 370.936C234.857 371.448 234.82 371.982 234.889 372.509C234.958 373.035 235.131 373.542 235.398 374C235.752 374.614 236.263 375.122 236.878 375.473C237.493 375.825 238.19 376.007 238.898 376C239.597 376.011 240.287 375.839 240.898 375.5L246.698 372.2C247.512 372.976 248.419 373.648 249.398 374.2C250.348 374.716 251.355 375.119 252.398 375.4V382C252.398 383.061 252.82 384.078 253.57 384.829C254.32 385.579 255.337 386 256.398 386C257.459 386 258.476 385.579 259.227 384.829C259.977 384.078 260.398 383.061 260.398 382V375.4C262.521 374.791 264.473 373.696 266.098 372.2L272.098 375.5C272.71 375.839 273.399 376.011 274.098 376C274.789 375.989 275.466 375.799 276.062 375.448C276.658 375.098 277.153 374.599 277.498 374C277.769 373.548 277.948 373.046 278.024 372.524C278.1 372.002 278.073 371.47 277.942 370.959C277.812 370.448 277.582 369.967 277.266 369.545C276.949 369.123 276.552 368.768 276.098 368.5ZM253.398 367.2C252.707 366.815 252.098 366.297 251.608 365.675C251.117 365.054 250.755 364.341 250.541 363.579C250.327 362.817 250.266 362.02 250.362 361.234C250.458 360.448 250.708 359.689 251.098 359C251.641 358.08 252.417 357.318 253.347 356.791C254.277 356.265 255.329 355.992 256.398 356C257.45 356.008 258.482 356.283 259.398 356.8C260.081 357.194 260.68 357.718 261.161 358.344C261.641 358.969 261.993 359.683 262.198 360.444C262.402 361.206 262.454 362 262.351 362.782C262.248 363.564 261.993 364.317 261.598 365C260.785 366.36 259.474 367.35 257.944 367.761C256.413 368.171 254.783 367.97 253.398 367.2Z" fill="url(#paint3_linear_72008_15456)" stroke="#86C3DB" stroke-miterlimit="10"/>
<path d="M332.098 368.5L326.298 365.2C326.82 363.065 326.82 360.835 326.298 358.7L332.098 355.5C332.561 355.241 332.967 354.892 333.294 354.473C333.62 354.055 333.86 353.576 334 353.064C334.139 352.552 334.176 352.018 334.107 351.492C334.038 350.966 333.865 350.459 333.598 350C333.339 349.524 332.985 349.105 332.559 348.77C332.133 348.435 331.644 348.189 331.12 348.049C330.596 347.909 330.049 347.876 329.513 347.954C328.976 348.031 328.461 348.217 327.998 348.5L322.198 351.8C321.415 351.031 320.542 350.36 319.598 349.8C318.653 349.25 317.646 348.813 316.598 348.5V342C316.598 340.926 316.171 339.896 315.412 339.136C314.652 338.377 313.622 337.95 312.548 337.95C311.474 337.95 310.444 338.377 309.684 339.136C308.925 339.896 308.498 340.926 308.498 342V348.6C306.377 349.212 304.426 350.308 302.798 351.8L296.998 348.5C296.536 348.217 296.02 348.031 295.484 347.954C294.947 347.876 294.4 347.909 293.876 348.049C293.353 348.189 292.863 348.435 292.437 348.77C292.011 349.105 291.657 349.524 291.398 350C291.131 350.459 290.958 350.966 290.889 351.492C290.82 352.018 290.857 352.552 290.996 353.064C291.136 353.576 291.376 354.055 291.703 354.473C292.029 354.892 292.435 355.241 292.898 355.5L298.698 358.8C298.177 360.935 298.177 363.165 298.698 365.3L292.898 368.5C292.435 368.76 292.029 369.109 291.703 369.527C291.376 369.945 291.136 370.424 290.996 370.936C290.857 371.448 290.82 371.982 290.889 372.509C290.958 373.035 291.131 373.542 291.398 374C291.752 374.614 292.263 375.122 292.878 375.473C293.493 375.825 294.19 376.007 294.898 376C295.597 376.011 296.287 375.839 296.898 375.5L302.698 372.2C303.512 372.976 304.419 373.648 305.398 374.2C306.348 374.716 307.355 375.119 308.398 375.4V382C308.398 383.061 308.82 384.078 309.57 384.829C310.32 385.579 311.337 386 312.398 386C313.459 386 314.476 385.579 315.227 384.829C315.977 384.078 316.398 383.061 316.398 382V375.4C318.521 374.791 320.473 373.696 322.098 372.2L327.898 375.5C328.51 375.839 329.199 376.011 329.898 376C330.606 376.007 331.304 375.825 331.918 375.473C332.533 375.122 333.044 374.614 333.398 374C333.954 373.098 334.129 372.012 333.886 370.981C333.642 369.95 332.999 369.058 332.098 368.5ZM309.398 367.2C308.707 366.815 308.098 366.297 307.608 365.675C307.117 365.054 306.755 364.341 306.541 363.579C306.327 362.817 306.266 362.02 306.362 361.234C306.458 360.448 306.708 359.689 307.098 359C307.641 358.08 308.417 357.318 309.347 356.791C310.277 356.265 311.329 355.992 312.398 356C313.45 356.008 314.482 356.283 315.398 356.8C316.081 357.194 316.68 357.718 317.161 358.344C317.641 358.969 317.993 359.683 318.198 360.444C318.402 361.206 318.454 362 318.351 362.782C318.248 363.564 317.993 364.317 317.598 365C316.785 366.36 315.474 367.35 313.944 367.761C312.413 368.171 310.783 367.97 309.398 367.2Z" fill="url(#paint4_linear_72008_15456)" stroke="#86C3DB" stroke-miterlimit="10"/>
</g>
<defs>
<linearGradient id="paint0_linear_72008_15456" x1="320.04" y1="181.6" x2="400.74" y2="321.3" gradientUnits="userSpaceOnUse">
<stop stop-color="#9CA3AF"/>
<stop offset="0.5" stop-color="#9CA3AF"/>
<stop offset="1" stop-color="#6B7280"/>
</linearGradient>
<linearGradient id="paint1_linear_72008_15456" x1="168.838" y1="175.7" x2="301.938" y2="406.4" gradientUnits="userSpaceOnUse">
<stop stop-color="#6B7280"/>
<stop offset="0.5" stop-color="#6B7280"/>
<stop offset="1" stop-color="#4B5563"/>
</linearGradient>
<linearGradient id="paint2_linear_72008_15456" x1="189.798" y1="343.4" x2="211.198" y2="380.6" gradientUnits="userSpaceOnUse">
<stop stop-color="#86C3DB"/>
<stop offset="0.5" stop-color="#86C3DB"/>
<stop offset="1" stop-color="#5EAFCF"/>
</linearGradient>
<linearGradient id="paint3_linear_72008_15456" x1="245.798" y1="343.4" x2="267.198" y2="380.6" gradientUnits="userSpaceOnUse">
<stop stop-color="#86C3DB"/>
<stop offset="0.5" stop-color="#86C3DB"/>
<stop offset="1" stop-color="#5EAFCF"/>
</linearGradient>
<linearGradient id="paint4_linear_72008_15456" x1="301.798" y1="343.4" x2="323.198" y2="380.6" gradientUnits="userSpaceOnUse">
<stop stop-color="#86C3DB"/>
<stop offset="0.5" stop-color="#86C3DB"/>
<stop offset="1" stop-color="#5EAFCF"/>
</linearGradient>
<clipPath id="clip0_72008_15456">
<rect width="398" height="222" fill="white" transform="translate(69.3398 145)"/>
</clipPath>
<clipPath id="clip1_72008_15456">
<rect width="200.3" height="126.1" fill="white" transform="translate(267.34 172)"/>
</clipPath>
<clipPath id="clip2_72008_15456">
<rect width="350" height="222" fill="white" transform="translate(69.3398 145)"/>
</clipPath>
<clipPath id="clip3_72008_15456">
<rect width="156.2" height="49" fill="white" transform="translate(178.398 337.5)"/>
</clipPath>
</defs>
</svg>
