<svg width="512" height="512" viewBox="0 0 512 512" fill="none" xmlns="http://www.w3.org/2000/svg">
<g clip-path="url(#clip0_72008_14858)">
<mask id="mask0_72008_14858" style="mask-type:luminance" maskUnits="userSpaceOnUse" x="0" y="0" width="512" height="512">
<path d="M512 0H0V512H512V0Z" fill="white"/>
</mask>
<g mask="url(#mask0_72008_14858)">
<path d="M372 203C371.146 203 370.315 203.089 369.471 203.127C371.063 196.668 372 189.951 372 183C372 136.608 334.392 99 288 99C257.799 99 231.399 114.991 216.596 138.915C208.218 133.921 198.461 131 188 131C157.072 131 132 156.072 132 187C132 190.1 132.317 193.12 132.801 196.083C105.022 201.333 84 225.694 84 255C84 288.137 110.863 315 144 315C145.351 315 146.672 314.886 148 314.798V315H372C402.928 315 428 289.928 428 259C428 228.072 402.928 203 372 203Z" fill="url(#paint0_linear_72008_14858)"/>
<path d="M372 203C371.146 203 370.315 203.089 369.471 203.127C371.063 196.668 372 189.951 372 183C372 136.608 334.392 99 288 99C257.799 99 231.399 114.991 216.596 138.915C208.218 133.921 198.461 131 188 131C157.072 131 132 156.072 132 187C132 190.1 132.317 193.12 132.801 196.083C105.022 201.333 84 225.694 84 255C84 288.137 110.863 315 144 315C145.351 315 146.672 314.886 148 314.798V315H372C402.928 315 428 289.928 428 259C428 228.072 402.928 203 372 203Z" stroke="#D0D9E7" stroke-width="6" stroke-miterlimit="10"/>
<path d="M135 413H375" stroke="url(#paint1_linear_72008_14858)" stroke-width="24" stroke-miterlimit="10" stroke-linecap="round"/>
<path d="M136.688 365H376.688" stroke="url(#paint2_linear_72008_14858)" stroke-width="24" stroke-miterlimit="10" stroke-linecap="round"/>
</g>
</g>
<defs>
<linearGradient id="paint0_linear_72008_14858" x1="180" y1="126" x2="313.186" y2="356.685" gradientUnits="userSpaceOnUse">
<stop stop-color="#E5EFFF"/>
<stop offset="0.49" stop-color="#EAF2FF"/>
<stop offset="1" stop-color="#D9E9FF"/>
</linearGradient>
<linearGradient id="paint1_linear_72008_14858" x1="nan" y1="nan" x2="nan" y2="nan" gradientUnits="userSpaceOnUse">
<stop stop-color="#D4D7DD"/>
<stop offset="0.22" stop-color="#D4D7DD"/>
<stop offset="0.45" stop-color="#D4D7DD"/>
<stop offset="0.73" stop-color="#C9CCD2"/>
<stop offset="1" stop-color="#BEC1C6"/>
</linearGradient>
<linearGradient id="paint2_linear_72008_14858" x1="nan" y1="nan" x2="nan" y2="nan" gradientUnits="userSpaceOnUse">
<stop stop-color="#D4D7DD"/>
<stop offset="0.22" stop-color="#D4D7DD"/>
<stop offset="0.45" stop-color="#D4D7DD"/>
<stop offset="0.73" stop-color="#C9CCD2"/>
<stop offset="1" stop-color="#BEC1C6"/>
</linearGradient>
<clipPath id="clip0_72008_14858">
<rect width="512" height="512" fill="white"/>
</clipPath>
</defs>
</svg>
