<svg width="512" height="512" viewBox="0 0 512 512" fill="none" xmlns="http://www.w3.org/2000/svg">
<g clip-path="url(#clip0_72008_14844)">
<mask id="mask0_72008_14844" style="mask-type:luminance" maskUnits="userSpaceOnUse" x="0" y="0" width="512" height="512">
<path d="M512 0H0V512H512V0Z" fill="white"/>
</mask>
<g mask="url(#mask0_72008_14844)">
<path d="M214.186 217.979C167.106 215.06 131.276 175.037 134.157 128.587C134.609 121.288 136.087 114.31 138.278 107.667C95.324 109.626 59.9023 143.21 57.2155 186.534C54.3348 232.984 90.1651 273.006 137.245 275.926C176.926 278.387 211.838 253.66 223.585 218.028C220.485 218.17 217.355 218.176 214.186 217.979Z" fill="url(#paint0_linear_72008_14844)"/>
<path d="M214.186 217.979C167.106 215.06 131.276 175.037 134.157 128.587C134.609 121.288 136.087 114.31 138.278 107.667C95.324 109.626 59.9023 143.21 57.2155 186.534C54.3348 232.984 90.1651 273.006 137.245 275.926C176.926 278.387 211.838 253.66 223.585 218.028C220.485 218.17 217.355 218.176 214.186 217.979Z" stroke="#72B9D5" stroke-width="4" stroke-linecap="round" stroke-linejoin="round"/>
<path d="M260.762 264.562C260.762 282.477 275.285 297 293.2 297H422.95V296.883C423.719 296.934 424.485 297 425.267 297C444.461 297 460.021 281.439 460.021 262.245C460.021 245.27 447.845 231.159 431.754 228.118C432.035 226.402 432.218 224.653 432.218 222.857C432.218 204.942 417.695 190.419 399.78 190.419C393.72 190.419 388.069 192.111 383.216 195.004C374.641 181.146 359.349 171.884 341.856 171.884C314.984 171.884 293.2 193.668 293.2 220.54C293.2 224.566 293.743 228.457 294.665 232.199C294.176 232.177 293.695 232.125 293.2 232.125C275.285 232.125 260.762 246.647 260.762 264.562Z" fill="url(#paint1_linear_72008_14844)"/>
<path d="M260.762 264.562C260.762 282.477 275.285 297 293.2 297H422.95V296.883C423.719 296.934 424.485 297 425.267 297C444.461 297 460.021 281.439 460.021 262.245C460.021 245.27 447.845 231.159 431.754 228.118C432.035 226.402 432.218 224.653 432.218 222.857C432.218 204.942 417.695 190.419 399.78 190.419C393.72 190.419 388.069 192.111 383.216 195.004C374.641 181.146 359.349 171.884 341.856 171.884C314.984 171.884 293.2 193.668 293.2 220.54C293.2 224.566 293.743 228.457 294.665 232.199C294.176 232.177 293.695 232.125 293.2 232.125C275.285 232.125 260.762 246.647 260.762 264.562Z" stroke="#838B98" stroke-miterlimit="10"/>
<path d="M358.863 252C358.009 252 357.178 252.089 356.334 252.127C357.926 245.668 358.863 238.951 358.863 232C358.863 185.608 321.255 148 274.863 148C244.662 148 218.262 163.991 203.459 187.915C195.081 182.921 185.324 180 174.863 180C143.935 180 118.863 205.072 118.863 236C118.863 239.1 119.18 242.12 119.664 245.083C91.8853 250.333 70.8633 274.694 70.8633 304C70.8633 337.137 97.7263 364 130.863 364C132.214 364 133.535 363.886 134.863 363.798V364H358.863C389.791 364 414.863 338.928 414.863 308C414.863 277.072 389.791 252 358.863 252Z" fill="url(#paint2_linear_72008_14844)"/>
<path d="M358.863 252C358.009 252 357.178 252.089 356.334 252.127C357.926 245.668 358.863 238.951 358.863 232C358.863 185.608 321.255 148 274.863 148C244.662 148 218.262 163.991 203.459 187.915C195.081 182.921 185.324 180 174.863 180C143.935 180 118.863 205.072 118.863 236C118.863 239.1 119.18 242.12 119.664 245.083C91.8853 250.333 70.8633 274.694 70.8633 304C70.8633 337.137 97.7263 364 130.863 364C132.214 364 133.535 363.886 134.863 363.798V364H358.863C389.791 364 414.863 338.928 414.863 308C414.863 277.072 389.791 252 358.863 252Z" stroke="#D0D9E7" stroke-width="6" stroke-miterlimit="10"/>
</g>
</g>
<defs>
<linearGradient id="paint0_linear_72008_14844" x1="93.3467" y1="120.911" x2="168.662" y2="272.293" gradientUnits="userSpaceOnUse">
<stop stop-color="#86C3DB"/>
<stop offset="0.22" stop-color="#86C3DB"/>
<stop offset="0.45" stop-color="#86C3DB"/>
<stop offset="0.73" stop-color="#72B9D5"/>
<stop offset="1" stop-color="#5EAFCF"/>
</linearGradient>
<linearGradient id="paint1_linear_72008_14844" x1="312.95" y1="181" x2="393.574" y2="320.645" gradientUnits="userSpaceOnUse">
<stop stop-color="#9CA3AF"/>
<stop offset="0.22" stop-color="#9CA3AF"/>
<stop offset="0.45" stop-color="#9CA3AF"/>
<stop offset="0.73" stop-color="#848A97"/>
<stop offset="1" stop-color="#6B7280"/>
</linearGradient>
<linearGradient id="paint2_linear_72008_14844" x1="166.863" y1="175" x2="300.049" y2="405.685" gradientUnits="userSpaceOnUse">
<stop stop-color="#E5EFFF"/>
<stop offset="0.48" stop-color="#EAF2FF"/>
<stop offset="1" stop-color="#D9E9FF"/>
</linearGradient>
<clipPath id="clip0_72008_14844">
<rect width="512" height="512" fill="white"/>
</clipPath>
</defs>
</svg>
