<svg width="512" height="512" viewBox="0 0 512 512" fill="none" xmlns="http://www.w3.org/2000/svg">
<g clip-path="url(#clip0_72008_14881)">
<mask id="mask0_72008_14881" style="mask-type:luminance" maskUnits="userSpaceOnUse" x="0" y="0" width="512" height="512">
<path d="M512 0H0V512H512V0Z" fill="white"/>
</mask>
<g mask="url(#mask0_72008_14881)">
<path d="M250.234 264.562C250.234 282.477 264.757 297 282.672 297H412.422V296.883C413.191 296.934 413.957 297 414.739 297C433.933 297 449.493 281.439 449.493 262.245C449.493 245.27 437.317 231.159 421.226 228.118C421.507 226.402 421.69 224.653 421.69 222.857C421.69 204.942 407.167 190.419 389.252 190.419C383.192 190.419 377.541 192.111 372.688 195.004C364.113 181.146 348.821 171.884 331.328 171.884C304.456 171.884 282.672 193.668 282.672 220.54C282.672 224.566 283.215 228.457 284.137 232.199C283.648 232.177 283.167 232.125 282.672 232.125C264.757 232.125 250.234 246.647 250.234 264.562Z" fill="url(#paint0_linear_72008_14881)"/>
<path d="M250.234 264.562C250.234 282.477 264.757 297 282.672 297H412.422V296.883C413.191 296.934 413.957 297 414.739 297C433.933 297 449.493 281.439 449.493 262.245C449.493 245.27 437.317 231.159 421.226 228.118C421.507 226.402 421.69 224.653 421.69 222.857C421.69 204.942 407.167 190.419 389.252 190.419C383.192 190.419 377.541 192.111 372.688 195.004C364.113 181.146 348.821 171.884 331.328 171.884C304.456 171.884 282.672 193.668 282.672 220.54C282.672 224.566 283.215 228.457 284.137 232.199C283.648 232.177 283.167 232.125 282.672 232.125C264.757 232.125 250.234 246.647 250.234 264.562Z" stroke="#838B98" stroke-miterlimit="10"/>
<path d="M351 252C350.146 252 349.315 252.089 348.471 252.127C350.063 245.668 351 238.951 351 232C351 185.608 313.392 148 267 148C236.799 148 210.399 163.991 195.596 187.915C187.218 182.921 177.461 180 167 180C136.072 180 111 205.072 111 236C111 239.1 111.317 242.12 111.801 245.083C84.022 250.333 63 274.694 63 304C63 337.137 89.863 364 123 364C124.351 364 125.672 363.886 127 363.798V364H351C381.928 364 407 338.928 407 308C407 277.072 381.928 252 351 252Z" fill="url(#paint1_linear_72008_14881)"/>
<path d="M351 252C350.146 252 349.315 252.089 348.471 252.127C350.063 245.668 351 238.951 351 232C351 185.608 313.392 148 267 148C236.799 148 210.399 163.991 195.596 187.915C187.218 182.921 177.461 180 167 180C136.072 180 111 205.072 111 236C111 239.1 111.317 242.12 111.801 245.083C84.022 250.333 63 274.694 63 304C63 337.137 89.863 364 123 364C124.351 364 125.672 363.886 127 363.798V364H351C381.928 364 407 338.928 407 308C407 277.072 381.928 252 351 252Z" stroke="#D0D9E7" stroke-width="6" stroke-miterlimit="10"/>
</g>
</g>
<defs>
<linearGradient id="paint0_linear_72008_14881" x1="302.422" y1="181" x2="383.046" y2="320.645" gradientUnits="userSpaceOnUse">
<stop stop-color="#9CA3AF"/>
<stop offset="0.22" stop-color="#9CA3AF"/>
<stop offset="0.45" stop-color="#9CA3AF"/>
<stop offset="0.73" stop-color="#848A97"/>
<stop offset="1" stop-color="#6B7280"/>
</linearGradient>
<linearGradient id="paint1_linear_72008_14881" x1="159" y1="175" x2="292.186" y2="405.685" gradientUnits="userSpaceOnUse">
<stop stop-color="#E5EFFF"/>
<stop offset="0.49" stop-color="#EAF2FF"/>
<stop offset="1" stop-color="#D9E9FF"/>
</linearGradient>
<clipPath id="clip0_72008_14881">
<rect width="512" height="512" fill="white"/>
</clipPath>
</defs>
</svg>
