<svg width="512" height="512" viewBox="0 0 512 512" fill="none" xmlns="http://www.w3.org/2000/svg">
<g clip-path="url(#clip0_72008_14804)">
<mask id="mask0_72008_14804" style="mask-type:luminance" maskUnits="userSpaceOnUse" x="0" y="0" width="512" height="512">
<path d="M512 0H0V512H512V0Z" fill="white"/>
</mask>
<g mask="url(#mask0_72008_14804)">
<path d="M335.373 256C335.373 299.835 299.836 335.372 256.001 335.372C212.166 335.372 176.629 299.835 176.629 256C176.629 212.165 212.166 176.628 256.001 176.628C299.836 176.628 335.373 212.165 335.373 256Z" fill="url(#paint0_linear_72008_14804)"/>
<path d="M335.373 256C335.373 299.835 299.836 335.372 256.001 335.372C212.166 335.372 176.629 299.835 176.629 256C176.629 212.165 212.166 176.628 256.001 176.628C299.836 176.628 335.373 212.165 335.373 256Z" stroke="#F7AF17" stroke-width="7.93721" stroke-miterlimit="10"/>
<path d="M286.97 127.483L298.768 78.5246M213.232 433.475L225.03 384.517M368.774 187.024L411.736 160.747M100.264 351.253L143.226 324.976M187.024 143.226L160.748 100.264M351.253 411.736L324.976 368.774M78.5247 213.232L127.483 225.03M433.476 298.768L384.517 286.97" stroke="#FABE24" stroke-width="23.8116" stroke-miterlimit="10" stroke-linecap="round"/>
<path d="M423.087 344.071C422.492 344.071 421.913 344.133 421.324 344.16C422.434 339.658 423.087 334.976 423.087 330.131C423.087 297.796 396.874 271.583 364.539 271.583C343.489 271.583 325.088 282.729 314.771 299.404C308.931 295.923 302.131 293.887 294.839 293.887C273.283 293.887 255.807 311.362 255.807 332.919C255.807 335.08 256.028 337.185 256.366 339.25C237.004 342.909 222.352 359.889 222.352 380.315C222.352 403.411 241.075 422.135 264.171 422.135C265.113 422.135 266.034 422.055 266.959 421.994V422.135H423.087C444.644 422.135 462.119 404.66 462.119 383.103C462.119 361.546 444.644 344.071 423.087 344.071Z" fill="url(#paint1_linear_72008_14804)"/>
<path d="M423.087 344.071C422.492 344.071 421.913 344.133 421.324 344.16C422.434 339.658 423.087 334.976 423.087 330.131C423.087 297.796 396.874 271.583 364.539 271.583C343.489 271.583 325.088 282.729 314.771 299.404C308.931 295.923 302.131 293.887 294.839 293.887C273.283 293.887 255.807 311.362 255.807 332.919C255.807 335.08 256.028 337.185 256.366 339.25C237.004 342.909 222.352 359.889 222.352 380.315C222.352 403.411 241.075 422.135 264.171 422.135C265.113 422.135 266.034 422.055 266.959 421.994V422.135H423.087C444.644 422.135 462.119 404.66 462.119 383.103C462.119 361.546 444.644 344.071 423.087 344.071Z" stroke="#D0D9E7" stroke-width="4.18199" stroke-miterlimit="10"/>
</g>
</g>
<defs>
<linearGradient id="paint0_linear_72008_14804" x1="214.331" y1="186.549" x2="293.717" y2="324.05" gradientUnits="userSpaceOnUse">
<stop stop-color="#FBBF24"/>
<stop offset="0.22" stop-color="#FBBF24"/>
<stop offset="0.45" stop-color="#FBBF24"/>
<stop offset="0.73" stop-color="#F8AE17"/>
<stop offset="1" stop-color="#F59E0B"/>
</linearGradient>
<linearGradient id="paint1_linear_72008_14804" x1="289.263" y1="290.402" x2="382.094" y2="451.189" gradientUnits="userSpaceOnUse">
<stop stop-color="#E5EFFF"/>
<stop offset="0.49" stop-color="#EAF2FF"/>
<stop offset="1" stop-color="#D9E9FF"/>
</linearGradient>
<clipPath id="clip0_72008_14804">
<rect width="512" height="512" fill="white"/>
</clipPath>
</defs>
</svg>
