<svg width="513" height="512" viewBox="0 0 513 512" fill="none" xmlns="http://www.w3.org/2000/svg">
<g clip-path="url(#clip0_72008_15435)">
<g clip-path="url(#clip1_72008_15435)">
<path d="M217.62 228.4C170.45 228.4 132.21 190.67 132.21 144.14C132.231 137.003 133.168 129.898 135 123C92.27 127.61 59 163.33 59 206.73C59 253.27 97.24 291 144.41 291C163.215 291.073 181.515 284.919 196.455 273.499C211.395 262.079 222.135 246.035 227 227.87C223.885 228.214 220.754 228.39 217.62 228.4Z" fill="url(#paint0_linear_72008_15435)" stroke="#72B9D5" stroke-width="4" stroke-linecap="round" stroke-linejoin="round"/>
</g>
<g clip-path="url(#clip2_72008_15435)">
<g clip-path="url(#clip3_72008_15435)">
<path d="M256.34 265.18C256.34 273.783 259.758 282.035 265.841 288.118C268.854 291.131 272.43 293.52 276.366 295.15C280.301 296.781 284.52 297.62 288.78 297.62H418.53V297.5C419.3 297.5 420.06 297.62 420.84 297.62C429.493 297.622 437.836 294.395 444.236 288.571C450.636 282.747 454.633 274.744 455.444 266.129C456.256 257.514 453.824 248.906 448.624 241.989C443.425 235.072 435.831 230.344 427.33 228.73C428.335 222.644 427.58 216.397 425.155 210.726C422.73 205.054 418.736 200.193 413.641 196.714C408.547 193.236 402.566 191.285 396.4 191.091C390.235 190.897 384.143 192.468 378.84 195.62C372.796 185.674 363.383 178.229 352.313 174.638C341.244 171.048 329.253 171.55 318.522 176.054C307.791 180.558 299.034 188.765 293.844 199.181C288.653 209.597 287.374 221.53 290.24 232.81C289.75 232.81 289.24 232.74 288.78 232.74C284.52 232.74 280.301 233.579 276.366 235.209C272.43 236.839 268.854 239.229 265.841 242.241C259.758 248.325 256.34 256.576 256.34 265.18Z" fill="url(#paint1_linear_72008_15435)" stroke="#848B98" stroke-miterlimit="10"/>
</g>
<g clip-path="url(#clip4_72008_15435)">
<path d="M348.841 252C347.991 252 347.161 252.09 346.311 252.13C351.135 232.702 348.854 212.19 339.88 194.297C330.906 176.403 315.83 162.308 297.374 154.556C278.919 146.804 258.3 145.906 239.24 152.025C220.18 158.143 203.936 170.874 193.441 187.92C184.948 182.843 175.261 180.11 165.367 180.001C155.473 179.892 145.728 182.41 137.125 187.299C128.523 192.188 121.372 199.272 116.403 207.828C111.434 216.384 108.824 226.106 108.841 236C108.863 239.043 109.13 242.08 109.641 245.08C94.9929 247.897 81.9197 256.069 72.9706 268.003C64.0216 279.936 59.8385 294.776 61.2371 309.626C62.6358 324.477 69.5159 338.274 80.5356 348.327C91.5553 358.379 105.924 363.967 120.841 364C122.191 364 123.511 363.89 124.841 363.8V364H348.841C363.693 364 377.937 358.1 388.439 347.598C398.941 337.096 404.841 322.852 404.841 308C404.841 293.148 398.941 278.904 388.439 268.402C377.937 257.9 363.693 252 348.841 252Z" fill="url(#paint2_linear_72008_15435)" stroke="#5B6472" stroke-width="6" stroke-miterlimit="10"/>
</g>
</g>
</g>
<defs>
<linearGradient id="paint0_linear_72008_15435" x1="91.67" y1="139.56" x2="176.21" y2="285.99" gradientUnits="userSpaceOnUse">
<stop stop-color="#86C3DB"/>
<stop offset="0.45" stop-color="#86C3DB"/>
<stop offset="1" stop-color="#5EAFCF"/>
</linearGradient>
<linearGradient id="paint1_linear_72008_15435" x1="308.58" y1="181.62" x2="389.2" y2="321.27" gradientUnits="userSpaceOnUse">
<stop stop-color="#9CA3AF"/>
<stop offset="0.45" stop-color="#9CA3AF"/>
<stop offset="1" stop-color="#6B7280"/>
</linearGradient>
<linearGradient id="paint2_linear_72008_15435" x1="157.291" y1="175.68" x2="290.481" y2="406.37" gradientUnits="userSpaceOnUse">
<stop stop-color="#6B7280"/>
<stop offset="0.45" stop-color="#6B7280"/>
<stop offset="1" stop-color="#4B5563"/>
</linearGradient>
<clipPath id="clip0_72008_15435">
<rect width="398.84" height="246" fill="white" transform="translate(57 121)"/>
</clipPath>
<clipPath id="clip1_72008_15435">
<rect width="172" height="172" fill="white" transform="translate(57 121)"/>
</clipPath>
<clipPath id="clip2_72008_15435">
<rect width="398" height="222" fill="white" transform="translate(57.8398 145)"/>
</clipPath>
<clipPath id="clip3_72008_15435">
<rect width="200.26" height="126.12" fill="white" transform="translate(255.84 172)"/>
</clipPath>
<clipPath id="clip4_72008_15435">
<rect width="350" height="222" fill="white" transform="translate(57.8398 145)"/>
</clipPath>
</defs>
</svg>
