<svg width="513" height="512" viewBox="0 0 513 512" fill="none" xmlns="http://www.w3.org/2000/svg">
<g clip-path="url(#clip0_72008_15077)">
<g clip-path="url(#clip1_72008_15077)">
<path d="M267.84 265.2C267.84 273.793 271.253 282.034 277.33 288.11C283.406 294.187 291.647 297.6 300.24 297.6H430.04V297.5L432.34 297.6C440.928 297.494 449.174 294.215 455.491 288.394C461.807 282.574 465.748 274.623 466.554 266.071C467.361 257.52 464.977 248.973 459.86 242.073C454.744 235.174 447.257 230.411 438.84 228.7C439.812 222.623 439.034 216.395 436.596 210.745C434.158 205.094 430.161 200.254 425.073 196.793C419.985 193.331 414.017 191.389 407.865 191.196C401.714 191.002 395.635 192.565 390.34 195.7C384.274 185.813 374.872 178.421 363.832 174.86C352.792 171.299 340.842 171.805 330.143 176.285C319.443 180.766 310.698 188.925 305.489 199.29C300.28 209.655 298.95 221.541 301.74 232.8H300.24C291.664 232.8 283.438 236.2 277.365 242.255C271.292 248.309 267.866 256.525 267.84 265.1V265.2Z" fill="url(#paint0_linear_72008_15077)" stroke="#848B98" stroke-miterlimit="10"/>
</g>
<path d="M360 252C359.146 252 358.315 252.089 357.471 252.127C359.063 245.668 360 238.951 360 232C360 185.608 322.392 148 276 148C245.799 148 219.399 163.991 204.596 187.915C196.218 182.921 186.461 180 176 180C145.072 180 120 205.072 120 236C120 239.1 120.317 242.12 120.801 245.083C93.022 250.333 72 274.694 72 304C72 337.137 98.863 364 132 364C133.351 364 134.672 363.886 136 363.798V364H360C390.928 364 416 338.928 416 308C416 277.072 390.928 252 360 252Z" fill="url(#paint1_linear_72008_15077)"/>
<path d="M360 252C359.146 252 358.315 252.089 357.471 252.127C359.063 245.668 360 238.951 360 232C360 185.608 322.392 148 276 148C245.799 148 219.399 163.991 204.596 187.915C196.218 182.921 186.461 180 176 180C145.072 180 120 205.072 120 236C120 239.1 120.317 242.12 120.801 245.083C93.022 250.333 72 274.694 72 304C72 337.137 98.863 364 132 364C133.351 364 134.672 363.886 136 363.798V364H360C390.928 364 416 338.928 416 308C416 277.072 390.928 252 360 252Z" stroke="#D0D9E7" stroke-width="6" stroke-miterlimit="10"/>
</g>
<path d="M200.5 376C198.378 376 196.343 375.157 194.843 373.657C193.343 372.157 192.5 370.122 192.5 368V356C192.5 353.878 193.343 351.843 194.843 350.343C196.343 348.843 198.378 348 200.5 348C202.622 348 204.657 348.843 206.157 350.343C207.657 351.843 208.5 353.878 208.5 356V368C208.5 370.122 207.657 372.157 206.157 373.657C204.657 375.157 202.622 376 200.5 376Z" fill="url(#paint2_linear_72008_15077)" stroke="#0A5AD4" stroke-miterlimit="10"/>
<path d="M256.5 376C254.378 376 252.343 375.157 250.843 373.657C249.343 372.157 248.5 370.122 248.5 368V356C248.5 353.878 249.343 351.843 250.843 350.343C252.343 348.843 254.378 348 256.5 348C258.622 348 260.657 348.843 262.157 350.343C263.657 351.843 264.5 353.878 264.5 356V368C264.5 370.122 263.657 372.157 262.157 373.657C260.657 375.157 258.622 376 256.5 376Z" fill="url(#paint3_linear_72008_15077)" stroke="#0A5AD4" stroke-miterlimit="10"/>
<path d="M312.5 376C310.378 376 308.343 375.157 306.843 373.657C305.343 372.157 304.5 370.122 304.5 368V356C304.5 353.878 305.343 351.843 306.843 350.343C308.343 348.843 310.378 348 312.5 348C314.622 348 316.657 348.843 318.157 350.343C319.657 351.843 320.5 353.878 320.5 356V368C320.5 370.122 319.657 372.157 318.157 373.657C316.657 375.157 314.622 376 312.5 376Z" fill="url(#paint4_linear_72008_15077)" stroke="#0A5AD4" stroke-miterlimit="10"/>
<defs>
<linearGradient id="paint0_linear_72008_15077" x1="320.04" y1="181.6" x2="400.74" y2="321.3" gradientUnits="userSpaceOnUse">
<stop stop-color="#9CA3AF"/>
<stop offset="0.5" stop-color="#9CA3AF"/>
<stop offset="1" stop-color="#6B7280"/>
</linearGradient>
<linearGradient id="paint1_linear_72008_15077" x1="168" y1="175" x2="301.186" y2="405.685" gradientUnits="userSpaceOnUse">
<stop stop-color="#E5EFFF"/>
<stop offset="0.45" stop-color="#EBF2FF"/>
<stop offset="0.5" stop-color="#EAF2FF"/>
<stop offset="0.99" stop-color="#D9E9FF"/>
</linearGradient>
<linearGradient id="paint2_linear_72008_15077" x1="193.884" y1="350.536" x2="207.131" y2="373.446" gradientUnits="userSpaceOnUse">
<stop stop-color="#0B65ED"/>
<stop offset="0.5" stop-color="#0A5AD4"/>
<stop offset="1" stop-color="#0950BC"/>
</linearGradient>
<linearGradient id="paint3_linear_72008_15077" x1="249.88" y1="350.577" x2="263.111" y2="373.388" gradientUnits="userSpaceOnUse">
<stop stop-color="#0B65ED"/>
<stop offset="0.5" stop-color="#0A5AD4"/>
<stop offset="1" stop-color="#0950BC"/>
</linearGradient>
<linearGradient id="paint4_linear_72008_15077" x1="305.875" y1="350.618" x2="319.107" y2="373.429" gradientUnits="userSpaceOnUse">
<stop stop-color="#0B65ED"/>
<stop offset="0.5" stop-color="#0A5AD4"/>
<stop offset="1" stop-color="#0950BC"/>
</linearGradient>
<clipPath id="clip0_72008_15077">
<rect width="398" height="222" fill="white" transform="translate(69.3398 145)"/>
</clipPath>
<clipPath id="clip1_72008_15077">
<rect width="200.3" height="126.1" fill="white" transform="translate(267.34 172)"/>
</clipPath>
</defs>
</svg>
