<svg width="512" height="512" viewBox="0 0 512 512" fill="none" xmlns="http://www.w3.org/2000/svg">
<mask id="mask0_72008_15407" style="mask-type:luminance" maskUnits="userSpaceOnUse" x="0" y="0" width="512" height="306">
<path d="M0 0H512V306H0V0Z" fill="white"/>
</mask>
<g mask="url(#mask0_72008_15407)">
<g clip-path="url(#clip0_72008_15407)">
<path d="M373.3 289.6C337.937 289.84 303.926 276.028 278.743 251.201C253.559 226.374 239.264 192.563 239 157.2C239.067 145.986 240.58 134.827 243.5 124C210.856 127.33 180.595 142.611 158.535 166.904C136.476 191.196 124.176 222.787 124 255.6C124 328.7 184 388 258.2 388C320.7 388 373 345.8 388 288.8C383.085 289.336 378.144 289.603 373.2 289.6H373.3Z" fill="url(#paint0_linear_72008_15407)" stroke="#72B9D5" stroke-width="6" stroke-linecap="round" stroke-linejoin="round"/>
</g>
</g>
<g clip-path="url(#clip1_72008_15407)">
<path d="M136 396H166" stroke="url(#paint1_linear_72008_15407)" stroke-width="24" stroke-miterlimit="10" stroke-linecap="round"/>
<path d="M226 396H316" stroke="url(#paint2_linear_72008_15407)" stroke-width="24" stroke-miterlimit="10" stroke-linecap="round" stroke-dasharray="60 60"/>
<path d="M346 396H376" stroke="url(#paint3_linear_72008_15407)" stroke-width="24" stroke-miterlimit="10" stroke-linecap="round"/>
<path d="M136 348H166" stroke="url(#paint4_linear_72008_15407)" stroke-width="24" stroke-miterlimit="10" stroke-linecap="round"/>
<path d="M226 348H316" stroke="url(#paint5_linear_72008_15407)" stroke-width="24" stroke-miterlimit="10" stroke-linecap="round" stroke-dasharray="60 60"/>
<path d="M346 348H376" stroke="url(#paint6_linear_72008_15407)" stroke-width="24" stroke-miterlimit="10" stroke-linecap="round"/>
</g>
<defs>
<linearGradient id="paint0_linear_72008_15407" x1="175.3" y1="150" x2="308.2" y2="380.1" gradientUnits="userSpaceOnUse">
<stop stop-color="#86C3DB"/>
<stop offset="0.5" stop-color="#86C3DB"/>
<stop offset="1" stop-color="#5EAFCF"/>
</linearGradient>
<linearGradient id="paint1_linear_72008_15407" x1="nan" y1="nan" x2="nan" y2="nan" gradientUnits="userSpaceOnUse">
<stop stop-color="#D4D7DD"/>
<stop offset="0.5" stop-color="#D4D7DD"/>
<stop offset="1" stop-color="#BEC1C6"/>
</linearGradient>
<linearGradient id="paint2_linear_72008_15407" x1="nan" y1="nan" x2="nan" y2="nan" gradientUnits="userSpaceOnUse">
<stop stop-color="#D4D7DD"/>
<stop offset="0.5" stop-color="#D4D7DD"/>
<stop offset="1" stop-color="#BEC1C6"/>
</linearGradient>
<linearGradient id="paint3_linear_72008_15407" x1="nan" y1="nan" x2="nan" y2="nan" gradientUnits="userSpaceOnUse">
<stop stop-color="#D4D7DD"/>
<stop offset="0.5" stop-color="#D4D7DD"/>
<stop offset="1" stop-color="#BEC1C6"/>
</linearGradient>
<linearGradient id="paint4_linear_72008_15407" x1="nan" y1="nan" x2="nan" y2="nan" gradientUnits="userSpaceOnUse">
<stop stop-color="#D4D7DD"/>
<stop offset="0.5" stop-color="#D4D7DD"/>
<stop offset="1" stop-color="#BEC1C6"/>
</linearGradient>
<linearGradient id="paint5_linear_72008_15407" x1="nan" y1="nan" x2="nan" y2="nan" gradientUnits="userSpaceOnUse">
<stop stop-color="#D4D7DD"/>
<stop offset="0.5" stop-color="#D4D7DD"/>
<stop offset="1" stop-color="#BEC1C6"/>
</linearGradient>
<linearGradient id="paint6_linear_72008_15407" x1="nan" y1="nan" x2="nan" y2="nan" gradientUnits="userSpaceOnUse">
<stop stop-color="#D4D7DD"/>
<stop offset="0.5" stop-color="#D4D7DD"/>
<stop offset="1" stop-color="#BEC1C6"/>
</linearGradient>
<clipPath id="clip0_72008_15407">
<rect width="270" height="270" fill="white" transform="translate(121 121)"/>
</clipPath>
<clipPath id="clip1_72008_15407">
<rect width="264" height="72" fill="white" transform="translate(124 336)"/>
</clipPath>
</defs>
</svg>
