<svg width="512" height="512" viewBox="0 0 512 512" fill="none" xmlns="http://www.w3.org/2000/svg">
<g clip-path="url(#clip0_72008_14996)">
<g clip-path="url(#clip1_72008_14996)">
<path d="M240.6 228.4C229.455 228.479 218.405 226.361 208.079 222.166C197.754 217.971 188.357 211.782 180.426 203.952C172.494 196.123 166.184 186.807 161.855 176.537C157.527 166.267 155.265 155.245 155.2 144.1C155.227 136.976 156.168 129.885 158 123C137.248 125.142 118.016 134.869 103.991 150.314C89.9668 165.76 82.136 185.838 82 206.7C82.0654 217.845 84.327 228.867 88.6555 239.137C92.9839 249.407 99.2943 258.723 107.226 266.552C115.157 274.382 124.554 280.571 134.879 284.766C145.205 288.961 156.255 291.079 167.4 291C186.201 291.07 204.497 284.919 219.437 273.505C234.378 262.092 245.123 246.058 250 227.9C246.878 228.234 243.74 228.401 240.6 228.4Z" fill="url(#paint0_linear_72008_14996)" stroke="#72B9D5" stroke-width="4" stroke-linecap="round" stroke-linejoin="round"/>
</g>
<path d="M372 252C371.146 252 370.315 252.089 369.471 252.127C371.063 245.668 372 238.951 372 232C372 185.608 334.392 148 288 148C257.799 148 231.399 163.991 216.596 187.915C208.218 182.921 198.461 180 188 180C157.072 180 132 205.072 132 236C132 239.1 132.317 242.12 132.801 245.083C105.022 250.333 84 274.694 84 304C84 337.137 110.863 364 144 364C145.351 364 146.672 363.886 148 363.798V364H372C402.928 364 428 338.928 428 308C428 277.072 402.928 252 372 252Z" fill="url(#paint1_linear_72008_14996)"/>
<path d="M372 252C371.146 252 370.315 252.089 369.471 252.127C371.063 245.668 372 238.951 372 232C372 185.608 334.392 148 288 148C257.799 148 231.399 163.991 216.596 187.915C208.218 182.921 198.461 180 188 180C157.072 180 132 205.072 132 236C132 239.1 132.317 242.12 132.801 245.083C105.022 250.333 84 274.694 84 304C84 337.137 110.863 364 144 364C145.351 364 146.672 363.886 148 363.798V364H372C402.928 364 428 338.928 428 308C428 277.072 402.928 252 372 252Z" stroke="#D0D9E7" stroke-width="6" stroke-miterlimit="10"/>
</g>
<path d="M200 376C197.878 376 195.843 375.157 194.343 373.657C192.843 372.157 192 370.122 192 368V356C192 353.878 192.843 351.843 194.343 350.343C195.843 348.843 197.878 348 200 348C202.122 348 204.157 348.843 205.657 350.343C207.157 351.843 208 353.878 208 356V368C208 370.122 207.157 372.157 205.657 373.657C204.157 375.157 202.122 376 200 376Z" fill="url(#paint2_linear_72008_14996)" stroke="#0A5AD4" stroke-miterlimit="10"/>
<path d="M256 376C253.878 376 251.843 375.157 250.343 373.657C248.843 372.157 248 370.122 248 368V356C248 353.878 248.843 351.843 250.343 350.343C251.843 348.843 253.878 348 256 348C258.122 348 260.157 348.843 261.657 350.343C263.157 351.843 264 353.878 264 356V368C264 370.122 263.157 372.157 261.657 373.657C260.157 375.157 258.122 376 256 376Z" fill="url(#paint3_linear_72008_14996)" stroke="#0A5AD4" stroke-miterlimit="10"/>
<path d="M312 376C309.878 376 307.843 375.157 306.343 373.657C304.843 372.157 304 370.122 304 368V356C304 353.878 304.843 351.843 306.343 350.343C307.843 348.843 309.878 348 312 348C314.122 348 316.157 348.843 317.657 350.343C319.157 351.843 320 353.878 320 356V368C320 370.122 319.157 372.157 317.657 373.657C316.157 375.157 314.122 376 312 376Z" fill="url(#paint4_linear_72008_14996)" stroke="#0A5AD4" stroke-miterlimit="10"/>
<defs>
<linearGradient id="paint0_linear_72008_14996" x1="114.7" y1="139.6" x2="199.2" y2="286" gradientUnits="userSpaceOnUse">
<stop stop-color="#86C3DB"/>
<stop offset="0.5" stop-color="#86C3DB"/>
<stop offset="1" stop-color="#5EAFCF"/>
</linearGradient>
<linearGradient id="paint1_linear_72008_14996" x1="180" y1="175" x2="313.186" y2="405.685" gradientUnits="userSpaceOnUse">
<stop stop-color="#E5EFFF"/>
<stop offset="0.45" stop-color="#EBF2FF"/>
<stop offset="0.5" stop-color="#EAF2FF"/>
<stop offset="0.99" stop-color="#D9E9FF"/>
</linearGradient>
<linearGradient id="paint2_linear_72008_14996" x1="193.425" y1="350.54" x2="206.573" y2="373.465" gradientUnits="userSpaceOnUse">
<stop stop-color="#0B65ED"/>
<stop offset="0.5" stop-color="#0A5AD4"/>
<stop offset="1" stop-color="#0950BC"/>
</linearGradient>
<linearGradient id="paint3_linear_72008_14996" x1="249.421" y1="350.58" x2="262.553" y2="373.407" gradientUnits="userSpaceOnUse">
<stop stop-color="#0B65ED"/>
<stop offset="0.5" stop-color="#0A5AD4"/>
<stop offset="1" stop-color="#0950BC"/>
</linearGradient>
<linearGradient id="paint4_linear_72008_14996" x1="305.401" y1="350.522" x2="318.648" y2="373.432" gradientUnits="userSpaceOnUse">
<stop stop-color="#0B65ED"/>
<stop offset="0.5" stop-color="#0A5AD4"/>
<stop offset="1" stop-color="#0950BC"/>
</linearGradient>
<clipPath id="clip0_72008_14996">
<rect width="351" height="246" fill="white" transform="translate(80 121)"/>
</clipPath>
<clipPath id="clip1_72008_14996">
<rect width="172" height="172" fill="white" transform="translate(80 121)"/>
</clipPath>
</defs>
</svg>
