<svg width="512" height="512" viewBox="0 0 512 512" fill="none" xmlns="http://www.w3.org/2000/svg">
<g clip-path="url(#clip0_72008_15384)">
<path d="M373.3 289.6C337.937 289.84 303.926 276.028 278.743 251.201C253.559 226.374 239.264 192.563 239 157.2C239.067 145.986 240.58 134.827 243.5 124C210.856 127.33 180.595 142.611 158.535 166.904C136.476 191.196 124.176 222.787 124 255.6C124 328.7 184 388 258.2 388C320.7 388 373 345.8 388 288.8C383.085 289.336 378.144 289.603 373.2 289.6H373.3Z" fill="url(#paint0_linear_72008_15384)" stroke="#72B9D5" stroke-width="6" stroke-linecap="round" stroke-linejoin="round"/>
</g>
<defs>
<linearGradient id="paint0_linear_72008_15384" x1="175.3" y1="150" x2="308.2" y2="380.1" gradientUnits="userSpaceOnUse">
<stop stop-color="#86C3DB"/>
<stop offset="0.5" stop-color="#86C3DB"/>
<stop offset="1" stop-color="#5EAFCF"/>
</linearGradient>
<clipPath id="clip0_72008_15384">
<rect width="270" height="270" fill="white" transform="translate(121 121)"/>
</clipPath>
</defs>
</svg>
