<svg width="512" height="512" viewBox="0 0 512 512" fill="none" xmlns="http://www.w3.org/2000/svg">
<g clip-path="url(#clip0_181_5897)">
<path d="M256 340C302.392 340 340 302.392 340 256C340 209.608 302.392 172 256 172C209.608 172 172 209.608 172 256C172 302.392 209.608 340 256 340Z" fill="url(#paint0_linear_181_5897)" stroke="#F8AF18" stroke-width="6" stroke-miterlimit="10"/>
<path d="M256 125.7V76M256 436V386.3M348.2 163.8L383.2 128.8M128.8 383.2L163.9 348.1M163.9 163.7L128.9 128.7M383.4 383.2L348.3 348.1M125.7 256H76M436 256H386.3" stroke="#FBBF24" stroke-width="24" stroke-miterlimit="10" stroke-linecap="round"/>
</g>
<defs>
<linearGradient id="paint0_linear_181_5897" x1="214" y1="183.2" x2="298" y2="328.8" gradientUnits="userSpaceOnUse">
<stop stop-color="#FBBF24"/>
<stop offset="0.5" stop-color="#FBBF24"/>
<stop offset="1" stop-color="#F59E0B"/>
</linearGradient>
<clipPath id="clip0_181_5897">
<rect width="384" height="384" fill="white" transform="translate(64 64)"/>
</clipPath>
</defs>
</svg>
