<svg width="513" height="512" viewBox="0 0 513 512" fill="none" xmlns="http://www.w3.org/2000/svg">
<g clip-path="url(#clip0_72008_15538)">
<g clip-path="url(#clip1_72008_15538)">
<path d="M229.12 228.4C181.95 228.4 143.71 190.67 143.71 144.14C143.731 137.003 144.668 129.898 146.5 123C103.77 127.61 70.5 163.33 70.5 206.73C70.5 253.27 108.74 291 155.91 291C174.715 291.073 193.015 284.919 207.955 273.499C222.895 262.079 233.635 246.035 238.5 227.87C235.385 228.214 232.254 228.39 229.12 228.4Z" fill="url(#paint0_linear_72008_15538)" stroke="#72B9D5" stroke-width="4" stroke-linecap="round" stroke-linejoin="round"/>
</g>
<g clip-path="url(#clip2_72008_15538)">
<g clip-path="url(#clip3_72008_15538)">
<path d="M267.84 265.18C267.84 273.783 271.258 282.035 277.341 288.118C280.354 291.131 283.93 293.52 287.866 295.15C291.801 296.781 296.02 297.62 300.28 297.62H430.03V297.5C430.8 297.5 431.56 297.62 432.34 297.62C440.993 297.622 449.336 294.395 455.736 288.571C462.136 282.747 466.133 274.744 466.944 266.129C467.756 257.514 465.324 248.906 460.124 241.989C454.925 235.072 447.331 230.344 438.83 228.73C439.835 222.644 439.08 216.397 436.655 210.726C434.23 205.054 430.236 200.193 425.141 196.714C420.047 193.236 414.066 191.285 407.9 191.091C401.735 190.897 395.643 192.468 390.34 195.62C384.296 185.674 374.883 178.229 363.813 174.638C352.744 171.048 340.753 171.55 330.022 176.054C319.291 180.558 310.534 188.765 305.344 199.181C300.153 209.597 298.874 221.53 301.74 232.81C301.25 232.81 300.74 232.74 300.28 232.74C296.02 232.74 291.801 233.579 287.866 235.209C283.93 236.839 280.354 239.229 277.341 242.241C271.258 248.325 267.84 256.576 267.84 265.18Z" fill="url(#paint1_linear_72008_15538)" stroke="#848B98" stroke-miterlimit="10"/>
</g>
<g clip-path="url(#clip4_72008_15538)">
<path d="M360.341 252C359.491 252 358.661 252.09 357.811 252.13C362.635 232.702 360.354 212.19 351.38 194.297C342.406 176.403 327.33 162.308 308.874 154.556C290.419 146.804 269.8 145.906 250.74 152.025C231.68 158.143 215.436 170.874 204.941 187.92C196.448 182.843 186.761 180.11 176.867 180.001C166.973 179.892 157.228 182.41 148.625 187.299C140.023 192.188 132.872 199.272 127.903 207.828C122.934 216.384 120.324 226.106 120.341 236C120.363 239.043 120.63 242.08 121.141 245.08C106.493 247.897 93.4197 256.069 84.4706 268.003C75.5216 279.936 71.3385 294.776 72.7371 309.626C74.1358 324.477 81.0159 338.274 92.0356 348.327C103.055 358.379 117.424 363.967 132.341 364C133.691 364 135.011 363.89 136.341 363.8V364H360.341C375.193 364 389.437 358.1 399.939 347.598C410.441 337.096 416.341 322.852 416.341 308C416.341 293.148 410.441 278.904 399.939 268.402C389.437 257.9 375.193 252 360.341 252Z" fill="url(#paint2_linear_72008_15538)" stroke="#5B6472" stroke-width="6" stroke-miterlimit="10"/>
</g>
</g>
</g>
<path d="M189.307 368.5L183.527 365.2C184.042 363.074 184.042 360.856 183.527 358.73L189.307 355.5C189.763 355.24 190.164 354.892 190.486 354.476C190.808 354.061 191.045 353.586 191.183 353.079C191.322 352.572 191.359 352.043 191.293 351.521C191.226 351 191.058 350.496 190.797 350.04C190.264 349.104 189.382 348.417 188.344 348.128C187.306 347.84 186.197 347.974 185.257 348.5L179.467 351.8C178.672 351.029 177.785 350.357 176.827 349.8C175.881 349.257 174.874 348.827 173.827 348.52V342C173.827 340.926 173.4 339.896 172.641 339.136C171.881 338.377 170.851 337.95 169.777 337.95C168.703 337.95 167.673 338.377 166.913 339.136C166.154 339.896 165.727 340.926 165.727 342V348.6C163.605 349.221 161.657 350.327 160.037 351.83L154.217 348.5C153.752 348.232 153.239 348.057 152.707 347.987C152.175 347.917 151.634 347.953 151.116 348.092C150.597 348.232 150.111 348.472 149.686 348.799C149.261 349.127 148.904 349.535 148.637 350C148.371 350.461 148.2 350.969 148.133 351.497C148.066 352.024 148.105 352.559 148.248 353.071C148.39 353.583 148.633 354.062 148.963 354.479C149.292 354.896 149.702 355.243 150.167 355.5L155.947 358.8C155.432 360.926 155.432 363.144 155.947 365.27L150.167 368.5C149.702 368.757 149.292 369.104 148.963 369.522C148.633 369.939 148.39 370.417 148.248 370.929C148.105 371.441 148.066 371.977 148.133 372.504C148.2 373.031 148.371 373.54 148.637 374C148.999 374.611 149.514 375.117 150.131 375.468C150.749 375.818 151.447 376.002 152.157 376C152.859 375.999 153.549 375.813 154.157 375.46L159.947 372.16C160.742 372.932 161.629 373.603 162.587 374.16C163.533 374.7 164.54 375.127 165.587 375.43V382C165.587 383.074 166.014 384.104 166.773 384.864C167.533 385.623 168.563 386.05 169.637 386.05C170.711 386.05 171.741 385.623 172.501 384.864C173.26 384.104 173.687 383.074 173.687 382V375.39C175.805 374.769 177.75 373.663 179.367 372.16L185.257 375.5C185.865 375.853 186.554 376.039 187.257 376.04C187.967 376.042 188.665 375.858 189.282 375.508C189.9 375.157 190.415 374.651 190.777 374.04C191.051 373.582 191.231 373.073 191.306 372.544C191.38 372.015 191.348 371.476 191.211 370.96C191.074 370.444 190.835 369.96 190.508 369.537C190.181 369.115 189.772 368.762 189.307 368.5ZM166.697 367.2C166.012 366.808 165.411 366.285 164.929 365.66C164.446 365.036 164.092 364.322 163.886 363.561C163.68 362.799 163.626 362.004 163.727 361.222C163.829 360.439 164.083 359.684 164.477 359C165.017 358.084 165.788 357.325 166.713 356.799C167.637 356.273 168.683 355.997 169.747 356C170.799 356.006 171.832 356.282 172.747 356.8C173.432 357.192 174.033 357.715 174.515 358.34C174.997 358.964 175.352 359.678 175.558 360.44C175.764 361.201 175.818 361.996 175.717 362.779C175.615 363.561 175.36 364.316 174.967 365C174.149 366.375 172.826 367.375 171.28 367.786C169.735 368.197 168.089 367.987 166.697 367.2Z" fill="url(#paint3_linear_72008_15538)" stroke="#86C3DB" stroke-miterlimit="10"/>
<path d="M245.307 368.5L239.527 365.2C240.042 363.074 240.042 360.856 239.527 358.73L245.307 355.5C245.763 355.24 246.164 354.892 246.486 354.476C246.808 354.061 247.045 353.586 247.183 353.079C247.322 352.572 247.359 352.043 247.293 351.521C247.226 351 247.058 350.496 246.797 350.04C246.264 349.104 245.382 348.417 244.344 348.128C243.306 347.84 242.197 347.974 241.257 348.5L235.467 351.8C234.672 351.029 233.785 350.357 232.827 349.8C231.881 349.257 230.874 348.827 229.827 348.52V342C229.827 340.926 229.4 339.896 228.641 339.136C227.881 338.377 226.851 337.95 225.777 337.95C224.703 337.95 223.673 338.377 222.913 339.136C222.154 339.896 221.727 340.926 221.727 342V348.6C219.605 349.221 217.657 350.327 216.037 351.83L210.217 348.5C209.752 348.232 209.239 348.057 208.707 347.987C208.175 347.917 207.634 347.953 207.116 348.092C206.597 348.232 206.111 348.472 205.686 348.799C205.261 349.127 204.904 349.535 204.637 350C204.371 350.461 204.2 350.969 204.133 351.497C204.066 352.024 204.105 352.559 204.248 353.071C204.39 353.583 204.633 354.062 204.963 354.479C205.292 354.896 205.702 355.243 206.167 355.5L211.947 358.8C211.432 360.926 211.432 363.144 211.947 365.27L206.167 368.5C205.702 368.757 205.292 369.104 204.963 369.522C204.633 369.939 204.39 370.417 204.248 370.929C204.105 371.441 204.066 371.977 204.133 372.504C204.2 373.031 204.371 373.54 204.637 374C204.999 374.611 205.514 375.117 206.131 375.468C206.749 375.818 207.447 376.002 208.157 376C208.859 375.999 209.549 375.813 210.157 375.46L215.947 372.16C216.742 372.932 217.629 373.603 218.587 374.16C219.533 374.7 220.54 375.127 221.587 375.43V382C221.587 383.074 222.014 384.104 222.773 384.864C223.533 385.623 224.563 386.05 225.637 386.05C226.711 386.05 227.741 385.623 228.501 384.864C229.26 384.104 229.687 383.074 229.687 382V375.39C231.805 374.769 233.75 373.663 235.367 372.16L241.257 375.5C241.865 375.853 242.554 376.039 243.257 376.04C243.967 376.042 244.665 375.858 245.282 375.508C245.9 375.157 246.415 374.651 246.777 374.04C247.051 373.582 247.231 373.073 247.306 372.544C247.38 372.015 247.348 371.476 247.211 370.96C247.074 370.444 246.835 369.96 246.508 369.537C246.181 369.115 245.772 368.762 245.307 368.5ZM222.697 367.2C222.012 366.808 221.411 366.285 220.929 365.66C220.446 365.036 220.092 364.322 219.886 363.561C219.68 362.799 219.626 362.004 219.727 361.222C219.828 360.439 220.083 359.684 220.477 359C221.017 358.084 221.788 357.325 222.713 356.799C223.637 356.273 224.683 355.997 225.747 356C226.799 356.006 227.832 356.282 228.747 356.8C229.432 357.192 230.033 357.715 230.515 358.34C230.997 358.964 231.352 359.678 231.558 360.44C231.764 361.201 231.818 361.996 231.717 362.779C231.615 363.561 231.36 364.316 230.967 365C230.149 366.375 228.826 367.375 227.28 367.786C225.735 368.197 224.089 367.987 222.697 367.2Z" fill="url(#paint4_linear_72008_15538)" stroke="#86C3DB" stroke-miterlimit="10"/>
<path d="M280.102 376C277.98 376 275.945 375.157 274.445 373.657C272.944 372.157 272.102 370.122 272.102 368V356C272.102 353.878 272.944 351.843 274.445 350.343C275.945 348.843 277.98 348 280.102 348C282.223 348 284.258 348.843 285.758 350.343C287.259 351.843 288.102 353.878 288.102 356V368C288.102 370.122 287.259 372.157 285.758 373.657C284.258 375.157 282.223 376 280.102 376Z" fill="url(#paint5_linear_72008_15538)" stroke="#0A5AD4" stroke-miterlimit="10"/>
<path d="M323.102 376C320.98 376 318.945 375.157 317.445 373.657C315.944 372.157 315.102 370.122 315.102 368V356C315.102 353.878 315.944 351.843 317.445 350.343C318.945 348.843 320.98 348 323.102 348C325.223 348 327.258 348.843 328.758 350.343C330.259 351.843 331.102 353.878 331.102 356V368C331.102 370.122 330.259 372.157 328.758 373.657C327.258 375.157 325.223 376 323.102 376Z" fill="url(#paint6_linear_72008_15538)" stroke="#0A5AD4" stroke-miterlimit="10"/>
<defs>
<linearGradient id="paint0_linear_72008_15538" x1="103.17" y1="139.56" x2="187.71" y2="285.99" gradientUnits="userSpaceOnUse">
<stop stop-color="#86C3DB"/>
<stop offset="0.45" stop-color="#86C3DB"/>
<stop offset="1" stop-color="#5EAFCF"/>
</linearGradient>
<linearGradient id="paint1_linear_72008_15538" x1="320.08" y1="181.62" x2="400.7" y2="321.27" gradientUnits="userSpaceOnUse">
<stop stop-color="#9CA3AF"/>
<stop offset="0.45" stop-color="#9CA3AF"/>
<stop offset="1" stop-color="#6B7280"/>
</linearGradient>
<linearGradient id="paint2_linear_72008_15538" x1="168.791" y1="175.68" x2="301.981" y2="406.37" gradientUnits="userSpaceOnUse">
<stop stop-color="#6B7280"/>
<stop offset="0.45" stop-color="#6B7280"/>
<stop offset="1" stop-color="#4B5563"/>
</linearGradient>
<linearGradient id="paint3_linear_72008_15538" x1="159.017" y1="343.43" x2="180.457" y2="380.57" gradientUnits="userSpaceOnUse">
<stop stop-color="#86C3DB"/>
<stop offset="0.45" stop-color="#86C3DB"/>
<stop offset="1" stop-color="#5EAFCF"/>
</linearGradient>
<linearGradient id="paint4_linear_72008_15538" x1="215.017" y1="343.43" x2="236.457" y2="380.57" gradientUnits="userSpaceOnUse">
<stop stop-color="#86C3DB"/>
<stop offset="0.45" stop-color="#86C3DB"/>
<stop offset="1" stop-color="#5EAFCF"/>
</linearGradient>
<linearGradient id="paint5_linear_72008_15538" x1="273.513" y1="350.578" x2="286.711" y2="373.435" gradientUnits="userSpaceOnUse">
<stop stop-color="#0B65ED"/>
<stop offset="0.45" stop-color="#0A5AD4"/>
<stop offset="1" stop-color="#0950BC"/>
</linearGradient>
<linearGradient id="paint6_linear_72008_15538" x1="316.512" y1="350.578" x2="329.71" y2="373.435" gradientUnits="userSpaceOnUse">
<stop stop-color="#0B65ED"/>
<stop offset="0.45" stop-color="#0A5AD4"/>
<stop offset="1" stop-color="#0950BC"/>
</linearGradient>
<clipPath id="clip0_72008_15538">
<rect width="398.84" height="246" fill="white" transform="translate(68.5 121)"/>
</clipPath>
<clipPath id="clip1_72008_15538">
<rect width="172" height="172" fill="white" transform="translate(68.5 121)"/>
</clipPath>
<clipPath id="clip2_72008_15538">
<rect width="398" height="222" fill="white" transform="translate(69.3398 145)"/>
</clipPath>
<clipPath id="clip3_72008_15538">
<rect width="200.26" height="126.12" fill="white" transform="translate(267.34 172)"/>
</clipPath>
<clipPath id="clip4_72008_15538">
<rect width="350" height="222" fill="white" transform="translate(69.3398 145)"/>
</clipPath>
</defs>
</svg>
