<svg width="512" height="512" viewBox="0 0 512 512" fill="none" xmlns="http://www.w3.org/2000/svg">
<g clip-path="url(#clip0_72008_15054)">
<g clip-path="url(#clip1_72008_15054)">
<path d="M240.6 228.4C229.455 228.479 218.405 226.361 208.079 222.166C197.754 217.971 188.357 211.782 180.426 203.952C172.494 196.123 166.184 186.807 161.855 176.537C157.527 166.267 155.265 155.245 155.2 144.1C155.227 136.976 156.168 129.885 158 123C137.248 125.142 118.016 134.869 103.991 150.314C89.9668 165.76 82.136 185.838 82 206.7C82.0654 217.845 84.327 228.867 88.6555 239.137C92.9839 249.407 99.2943 258.723 107.226 266.552C115.157 274.382 124.554 280.571 134.879 284.766C145.205 288.961 156.255 291.079 167.4 291C186.201 291.07 204.497 284.919 219.437 273.505C234.378 262.092 245.123 246.058 250 227.9C246.878 228.234 243.74 228.401 240.6 228.4Z" fill="url(#paint0_linear_72008_15054)" stroke="#72B9D5" stroke-width="4" stroke-linecap="round" stroke-linejoin="round"/>
</g>
<path d="M372.5 252C371.646 252 370.815 252.089 369.971 252.127C371.563 245.668 372.5 238.951 372.5 232C372.5 185.608 334.892 148 288.5 148C258.299 148 231.899 163.991 217.096 187.915C208.718 182.921 198.961 180 188.5 180C157.572 180 132.5 205.072 132.5 236C132.5 239.1 132.817 242.12 133.301 245.083C105.522 250.333 84.5 274.694 84.5 304C84.5 337.137 111.363 364 144.5 364C145.851 364 147.172 363.886 148.5 363.798V364H372.5C403.428 364 428.5 338.928 428.5 308C428.5 277.072 403.428 252 372.5 252Z" fill="url(#paint1_linear_72008_15054)"/>
<path d="M372.5 252C371.646 252 370.815 252.089 369.971 252.127C371.563 245.668 372.5 238.951 372.5 232C372.5 185.608 334.892 148 288.5 148C258.299 148 231.899 163.991 217.096 187.915C208.718 182.921 198.961 180 188.5 180C157.572 180 132.5 205.072 132.5 236C132.5 239.1 132.817 242.12 133.301 245.083C105.522 250.333 84.5 274.694 84.5 304C84.5 337.137 111.363 364 144.5 364C145.851 364 147.172 363.886 148.5 363.798V364H372.5C403.428 364 428.5 338.928 428.5 308C428.5 277.072 403.428 252 372.5 252Z" stroke="#D0D9E7" stroke-width="6" stroke-miterlimit="10"/>
</g>
<g clip-path="url(#clip2_72008_15054)">
<path d="M219.598 368.5L213.798 365.2C214.32 363.065 214.32 360.835 213.798 358.7L219.598 355.5C220.061 355.241 220.467 354.892 220.794 354.473C221.12 354.055 221.36 353.576 221.5 353.064C221.639 352.552 221.676 352.018 221.607 351.492C221.538 350.966 221.365 350.459 221.098 350C220.839 349.524 220.485 349.105 220.059 348.77C219.633 348.435 219.144 348.189 218.62 348.049C218.096 347.909 217.549 347.876 217.013 347.954C216.476 348.031 215.961 348.217 215.498 348.5L209.698 351.8C208.915 351.031 208.042 350.36 207.098 349.8C206.153 349.25 205.146 348.813 204.098 348.5V342C204.098 340.926 203.671 339.896 202.912 339.136C202.152 338.377 201.122 337.95 200.048 337.95C198.974 337.95 197.944 338.377 197.184 339.136C196.425 339.896 195.998 340.926 195.998 342V348.6C193.877 349.212 191.926 350.308 190.298 351.8L184.498 348.5C184.036 348.217 183.52 348.031 182.984 347.954C182.447 347.876 181.9 347.909 181.376 348.049C180.853 348.189 180.363 348.435 179.937 348.77C179.511 349.105 179.157 349.524 178.898 350C178.631 350.459 178.458 350.966 178.389 351.492C178.32 352.018 178.357 352.552 178.496 353.064C178.636 353.576 178.876 354.055 179.203 354.473C179.529 354.892 179.935 355.241 180.398 355.5L186.198 358.8C185.677 360.935 185.677 363.165 186.198 365.3L180.398 368.5C179.935 368.76 179.529 369.109 179.203 369.527C178.876 369.945 178.636 370.424 178.496 370.936C178.357 371.448 178.32 371.982 178.389 372.509C178.458 373.035 178.631 373.542 178.898 374C179.252 374.614 179.763 375.122 180.378 375.473C180.993 375.825 181.69 376.007 182.398 376C183.097 376.011 183.787 375.839 184.398 375.5L190.198 372.2C190.981 372.969 191.854 373.641 192.798 374.2C193.748 374.716 194.755 375.119 195.798 375.4V382C195.798 383.088 196.23 384.13 196.999 384.899C197.768 385.668 198.811 386.1 199.898 386.1C200.985 386.1 202.028 385.668 202.797 384.899C203.566 384.13 203.998 383.088 203.998 382V375.4C206.086 374.777 208.002 373.682 209.598 372.2L215.598 375.5C216.21 375.839 216.899 376.011 217.598 376C218.289 375.989 218.966 375.799 219.562 375.448C220.158 375.098 220.653 374.599 220.998 374C221.269 373.548 221.448 373.046 221.524 372.524C221.6 372.002 221.573 371.47 221.442 370.959C221.312 370.448 221.082 369.967 220.766 369.545C220.449 369.123 220.052 368.768 219.598 368.5ZM196.898 367.2C196.207 366.815 195.598 366.297 195.108 365.675C194.617 365.054 194.255 364.341 194.041 363.579C193.827 362.817 193.766 362.02 193.862 361.234C193.958 360.448 194.208 359.689 194.598 359C195.141 358.08 195.917 357.318 196.847 356.791C197.777 356.265 198.829 355.992 199.898 356C200.95 356.008 201.982 356.283 202.898 356.8C203.581 357.194 204.18 357.718 204.661 358.344C205.141 358.969 205.493 359.683 205.698 360.444C205.902 361.206 205.954 362 205.851 362.782C205.748 363.564 205.493 364.317 205.098 365C204.285 366.36 202.974 367.35 201.444 367.761C199.913 368.171 198.283 367.97 196.898 367.2Z" fill="url(#paint2_linear_72008_15054)" stroke="#86C3DB" stroke-miterlimit="10"/>
<path d="M275.598 368.5L269.798 365.2C270.32 363.065 270.32 360.835 269.798 358.7L275.598 355.5C276.061 355.241 276.467 354.892 276.794 354.473C277.12 354.055 277.36 353.576 277.5 353.064C277.639 352.552 277.676 352.018 277.607 351.492C277.538 350.966 277.365 350.459 277.098 350C276.839 349.524 276.485 349.105 276.059 348.77C275.633 348.435 275.144 348.189 274.62 348.049C274.096 347.909 273.549 347.876 273.013 347.954C272.476 348.031 271.961 348.217 271.498 348.5L265.698 351.8C264.915 351.031 264.042 350.36 263.098 349.8C262.153 349.25 261.146 348.813 260.098 348.5V342C260.098 340.926 259.671 339.896 258.912 339.136C258.152 338.377 257.122 337.95 256.048 337.95C254.974 337.95 253.944 338.377 253.184 339.136C252.425 339.896 251.998 340.926 251.998 342V348.6C249.877 349.212 247.926 350.308 246.298 351.8L240.498 348.5C240.036 348.217 239.52 348.031 238.984 347.954C238.447 347.876 237.9 347.909 237.376 348.049C236.853 348.189 236.363 348.435 235.937 348.77C235.511 349.105 235.157 349.524 234.898 350C234.631 350.459 234.458 350.966 234.389 351.492C234.32 352.018 234.357 352.552 234.496 353.064C234.636 353.576 234.876 354.055 235.203 354.473C235.529 354.892 235.935 355.241 236.398 355.5L242.198 358.8C241.677 360.935 241.677 363.165 242.198 365.3L236.398 368.5C235.935 368.76 235.529 369.109 235.203 369.527C234.876 369.945 234.636 370.424 234.496 370.936C234.357 371.448 234.32 371.982 234.389 372.509C234.458 373.035 234.631 373.542 234.898 374C235.252 374.614 235.763 375.122 236.378 375.473C236.993 375.825 237.69 376.007 238.398 376C239.097 376.011 239.787 375.839 240.398 375.5L246.198 372.2C247.012 372.976 247.919 373.648 248.898 374.2C249.848 374.716 250.855 375.119 251.898 375.4V382C251.898 383.061 252.32 384.078 253.07 384.829C253.82 385.579 254.837 386 255.898 386C256.959 386 257.976 385.579 258.727 384.829C259.477 384.078 259.898 383.061 259.898 382V375.4C262.021 374.791 263.973 373.696 265.598 372.2L271.598 375.5C272.21 375.839 272.899 376.011 273.598 376C274.289 375.989 274.966 375.799 275.562 375.448C276.158 375.098 276.653 374.599 276.998 374C277.269 373.548 277.448 373.046 277.524 372.524C277.6 372.002 277.573 371.47 277.442 370.959C277.312 370.448 277.082 369.967 276.766 369.545C276.449 369.123 276.052 368.768 275.598 368.5ZM252.898 367.2C252.207 366.815 251.598 366.297 251.108 365.675C250.617 365.054 250.255 364.341 250.041 363.579C249.827 362.817 249.766 362.02 249.862 361.234C249.958 360.448 250.208 359.689 250.598 359C251.141 358.08 251.917 357.318 252.847 356.791C253.777 356.265 254.829 355.992 255.898 356C256.95 356.008 257.982 356.283 258.898 356.8C259.581 357.194 260.18 357.718 260.661 358.344C261.141 358.969 261.493 359.683 261.698 360.444C261.902 361.206 261.954 362 261.851 362.782C261.748 363.564 261.493 364.317 261.098 365C260.285 366.36 258.974 367.35 257.444 367.761C255.913 368.171 254.283 367.97 252.898 367.2Z" fill="url(#paint3_linear_72008_15054)" stroke="#86C3DB" stroke-miterlimit="10"/>
<path d="M331.598 368.5L325.798 365.2C326.32 363.065 326.32 360.835 325.798 358.7L331.598 355.5C332.061 355.241 332.467 354.892 332.794 354.473C333.12 354.055 333.36 353.576 333.5 353.064C333.639 352.552 333.676 352.018 333.607 351.492C333.538 350.966 333.365 350.459 333.098 350C332.839 349.524 332.485 349.105 332.059 348.77C331.633 348.435 331.144 348.189 330.62 348.049C330.096 347.909 329.549 347.876 329.013 347.954C328.476 348.031 327.961 348.217 327.498 348.5L321.698 351.8C320.915 351.031 320.042 350.36 319.098 349.8C318.153 349.25 317.146 348.813 316.098 348.5V342C316.098 340.926 315.671 339.896 314.912 339.136C314.152 338.377 313.122 337.95 312.048 337.95C310.974 337.95 309.944 338.377 309.184 339.136C308.425 339.896 307.998 340.926 307.998 342V348.6C305.877 349.212 303.926 350.308 302.298 351.8L296.498 348.5C296.036 348.217 295.52 348.031 294.984 347.954C294.447 347.876 293.9 347.909 293.376 348.049C292.853 348.189 292.363 348.435 291.937 348.77C291.511 349.105 291.157 349.524 290.898 350C290.631 350.459 290.458 350.966 290.389 351.492C290.32 352.018 290.357 352.552 290.496 353.064C290.636 353.576 290.876 354.055 291.203 354.473C291.529 354.892 291.935 355.241 292.398 355.5L298.198 358.8C297.677 360.935 297.677 363.165 298.198 365.3L292.398 368.5C291.935 368.76 291.529 369.109 291.203 369.527C290.876 369.945 290.636 370.424 290.496 370.936C290.357 371.448 290.32 371.982 290.389 372.509C290.458 373.035 290.631 373.542 290.898 374C291.252 374.614 291.763 375.122 292.378 375.473C292.993 375.825 293.69 376.007 294.398 376C295.097 376.011 295.787 375.839 296.398 375.5L302.198 372.2C303.012 372.976 303.919 373.648 304.898 374.2C305.848 374.716 306.855 375.119 307.898 375.4V382C307.898 383.061 308.32 384.078 309.07 384.829C309.82 385.579 310.837 386 311.898 386C312.959 386 313.976 385.579 314.727 384.829C315.477 384.078 315.898 383.061 315.898 382V375.4C318.021 374.791 319.973 373.696 321.598 372.2L327.398 375.5C328.01 375.839 328.699 376.011 329.398 376C330.106 376.007 330.804 375.825 331.418 375.473C332.033 375.122 332.544 374.614 332.898 374C333.454 373.098 333.629 372.012 333.386 370.981C333.142 369.95 332.499 369.058 331.598 368.5ZM308.898 367.2C308.207 366.815 307.598 366.297 307.108 365.675C306.617 365.054 306.255 364.341 306.041 363.579C305.827 362.817 305.766 362.02 305.862 361.234C305.958 360.448 306.208 359.689 306.598 359C307.141 358.08 307.917 357.318 308.847 356.791C309.777 356.265 310.829 355.992 311.898 356C312.95 356.008 313.982 356.283 314.898 356.8C315.581 357.194 316.18 357.718 316.661 358.344C317.141 358.969 317.493 359.683 317.698 360.444C317.902 361.206 317.954 362 317.851 362.782C317.748 363.564 317.493 364.317 317.098 365C316.285 366.36 314.974 367.35 313.444 367.761C311.913 368.171 310.283 367.97 308.898 367.2Z" fill="url(#paint4_linear_72008_15054)" stroke="#86C3DB" stroke-miterlimit="10"/>
</g>
<defs>
<linearGradient id="paint0_linear_72008_15054" x1="114.7" y1="139.6" x2="199.2" y2="286" gradientUnits="userSpaceOnUse">
<stop stop-color="#86C3DB"/>
<stop offset="0.5" stop-color="#86C3DB"/>
<stop offset="1" stop-color="#5EAFCF"/>
</linearGradient>
<linearGradient id="paint1_linear_72008_15054" x1="180.5" y1="175" x2="313.686" y2="405.685" gradientUnits="userSpaceOnUse">
<stop stop-color="#E5EFFF"/>
<stop offset="0.45" stop-color="#EBF2FF"/>
<stop offset="0.5" stop-color="#EAF2FF"/>
<stop offset="0.99" stop-color="#D9E9FF"/>
</linearGradient>
<linearGradient id="paint2_linear_72008_15054" x1="189.298" y1="343.4" x2="210.698" y2="380.6" gradientUnits="userSpaceOnUse">
<stop stop-color="#86C3DB"/>
<stop offset="0.5" stop-color="#86C3DB"/>
<stop offset="1" stop-color="#5EAFCF"/>
</linearGradient>
<linearGradient id="paint3_linear_72008_15054" x1="245.298" y1="343.4" x2="266.698" y2="380.6" gradientUnits="userSpaceOnUse">
<stop stop-color="#86C3DB"/>
<stop offset="0.5" stop-color="#86C3DB"/>
<stop offset="1" stop-color="#5EAFCF"/>
</linearGradient>
<linearGradient id="paint4_linear_72008_15054" x1="301.298" y1="343.4" x2="322.698" y2="380.6" gradientUnits="userSpaceOnUse">
<stop stop-color="#86C3DB"/>
<stop offset="0.5" stop-color="#86C3DB"/>
<stop offset="1" stop-color="#5EAFCF"/>
</linearGradient>
<clipPath id="clip0_72008_15054">
<rect width="351" height="246" fill="white" transform="translate(80 121)"/>
</clipPath>
<clipPath id="clip1_72008_15054">
<rect width="172" height="172" fill="white" transform="translate(80 121)"/>
</clipPath>
<clipPath id="clip2_72008_15054">
<rect width="156.2" height="49" fill="white" transform="translate(177.898 337.5)"/>
</clipPath>
</defs>
</svg>
